<svg width="158" height="159" viewBox="0 0 158 159" fill="none" xmlns="http://www.w3.org/2000/svg">
<circle cx="78.8507" cy="79.4322" r="78.6568" fill="#111827"/>
<rect width="83.0488" height="64.6823" transform="translate(37.7256 47.0908)" fill="#111827"/>
<path d="M61.6362 52.1543C61.5523 52.1543 61.4875 52.1314 61.4417 52.0856C61.396 52.0323 61.3731 51.9674 61.3731 51.8911V44.4196C61.3731 44.3357 61.396 44.2709 61.4417 44.2251C61.4875 44.1717 61.5523 44.145 61.6362 44.145H66.3617C66.4456 44.145 66.5105 44.1717 66.5562 44.2251C66.602 44.2709 66.6249 44.3357 66.6249 44.4196V44.8544C66.6249 44.9383 66.602 45.0031 66.5562 45.0489C66.5105 45.0947 66.4456 45.1176 66.3617 45.1176H62.4715V47.6233H66.11C66.1939 47.6233 66.2588 47.65 66.3045 47.7034C66.3503 47.7492 66.3732 47.814 66.3732 47.8979V48.3213C66.3732 48.3976 66.3503 48.4624 66.3045 48.5158C66.2588 48.5616 66.1939 48.5844 66.11 48.5844H62.4715V51.1817H66.4533C66.5372 51.1817 66.602 51.2046 66.6478 51.2504C66.6935 51.2962 66.7164 51.361 66.7164 51.4449V51.8911C66.7164 51.9674 66.6935 52.0323 66.6478 52.0856C66.602 52.1314 66.5372 52.1543 66.4533 52.1543H61.6362ZM69.8223 52.2687C69.4409 52.2687 69.0938 52.1924 68.7811 52.0399C68.4683 51.8873 68.2166 51.6814 68.0259 51.422C67.8352 51.1627 67.7398 50.869 67.7398 50.541C67.7398 50.0147 67.9534 49.5951 68.3806 49.2824C68.8078 48.9696 69.3646 48.7637 70.0511 48.6645L71.7559 48.4243V48.0924C71.7559 47.7263 71.6491 47.4403 71.4356 47.2343C71.2296 47.0283 70.8902 46.9254 70.4172 46.9254C70.074 46.9254 69.7956 46.994 69.582 47.1313C69.376 47.2686 69.2311 47.4441 69.1472 47.6576C69.1014 47.7721 69.0213 47.8293 68.9069 47.8293H68.392C68.3081 47.8293 68.2433 47.8064 68.1975 47.7606C68.1594 47.7072 68.1403 47.6462 68.1403 47.5776C68.1403 47.4631 68.1823 47.322 68.2662 47.1542C68.3577 46.9864 68.495 46.8224 68.6781 46.6622C68.8611 46.502 69.0938 46.3685 69.376 46.2617C69.6659 46.1473 70.0168 46.0901 70.4287 46.0901C70.8864 46.0901 71.2716 46.1511 71.5843 46.2732C71.8971 46.3876 72.1411 46.544 72.3166 46.7423C72.4997 46.9406 72.6293 47.1656 72.7056 47.4174C72.7895 47.6691 72.8315 47.9246 72.8315 48.184V51.8911C72.8315 51.9674 72.8048 52.0323 72.7514 52.0856C72.7056 52.1314 72.6446 52.1543 72.5683 52.1543H72.042C71.9581 52.1543 71.8932 52.1314 71.8475 52.0856C71.8017 52.0323 71.7788 51.9674 71.7788 51.8911V51.3991C71.6797 51.5364 71.5462 51.6737 71.3784 51.811C71.2105 51.9407 71.0008 52.0513 70.7491 52.1429C70.4973 52.2268 70.1884 52.2687 69.8223 52.2687ZM70.0625 51.4106C70.3753 51.4106 70.6613 51.3457 70.9207 51.2161C71.18 51.0788 71.3822 50.869 71.5271 50.5868C71.6797 50.3045 71.7559 49.9498 71.7559 49.5227V49.2023L70.4287 49.3968C69.8871 49.4731 69.479 49.6028 69.2044 49.7858C68.9298 49.9613 68.7925 50.1863 68.7925 50.4609C68.7925 50.6745 68.8535 50.8537 68.9756 50.9987C69.1052 51.136 69.2654 51.2389 69.4561 51.3076C69.6545 51.3763 69.8566 51.4106 70.0625 51.4106ZM74.7395 52.1543C74.6632 52.1543 74.5984 52.1314 74.545 52.0856C74.4992 52.0323 74.4763 51.9674 74.4763 51.8911V46.4791C74.4763 46.4029 74.4992 46.338 74.545 46.2846C74.5984 46.2312 74.6632 46.2045 74.7395 46.2045H75.2658C75.3421 46.2045 75.4069 46.2312 75.4603 46.2846C75.5137 46.338 75.5404 46.4029 75.5404 46.4791V46.9826C75.693 46.7232 75.9028 46.5287 76.1697 46.399C76.4367 46.2694 76.7571 46.2045 77.1308 46.2045H77.5885C77.6648 46.2045 77.7258 46.2312 77.7716 46.2846C77.8174 46.3304 77.8402 46.3914 77.8402 46.4677V46.9368C77.8402 47.0131 77.8174 47.0741 77.7716 47.1199C77.7258 47.1656 77.6648 47.1885 77.5885 47.1885H76.902C76.4901 47.1885 76.1659 47.3106 75.9294 47.5547C75.693 47.7911 75.5748 48.1153 75.5748 48.5272V51.8911C75.5748 51.9674 75.5481 52.0323 75.4947 52.0856C75.4413 52.1314 75.3764 52.1543 75.3001 52.1543H74.7395ZM79.0861 52.1543C79.0098 52.1543 78.9449 52.1314 78.8915 52.0856C78.8458 52.0323 78.8229 51.9674 78.8229 51.8911V46.4677C78.8229 46.3914 78.8458 46.3304 78.8915 46.2846C78.9449 46.2312 79.0098 46.2045 79.0861 46.2045H79.6238C79.7001 46.2045 79.7611 46.2312 79.8069 46.2846C79.8603 46.3304 79.887 46.3914 79.887 46.4677V46.9711C80.0853 46.7118 80.3332 46.502 80.6307 46.3418C80.9358 46.174 81.3249 46.0901 81.7978 46.0901C82.2936 46.0901 82.7131 46.2007 83.0564 46.4219C83.4073 46.6355 83.6704 46.9368 83.8459 47.3258C84.0213 47.7072 84.109 48.1535 84.109 48.6645V51.8911C84.109 51.9674 84.0862 52.0323 84.0404 52.0856C83.9946 52.1314 83.9336 52.1543 83.8573 52.1543H83.2852C83.2089 52.1543 83.1441 52.1314 83.0907 52.0856C83.0449 52.0323 83.0221 51.9674 83.0221 51.8911V48.7217C83.0221 48.1878 82.8924 47.7721 82.633 47.4746C82.3737 47.1695 81.9923 47.0169 81.4889 47.0169C81.0159 47.0169 80.6345 47.1695 80.3447 47.4746C80.0624 47.7721 79.9213 48.1878 79.9213 48.7217V51.8911C79.9213 51.9674 79.8946 52.0323 79.8412 52.0856C79.7955 52.1314 79.7344 52.1543 79.6582 52.1543H79.0861ZM88.1302 52.2687C87.3446 52.2687 86.7191 52.0284 86.2538 51.5479C85.7885 51.0597 85.5329 50.3961 85.4872 49.557C85.4795 49.4578 85.4757 49.332 85.4757 49.1794C85.4757 49.0192 85.4795 48.8896 85.4872 48.7904C85.5177 48.2488 85.6435 47.7759 85.8647 47.3716C86.0859 46.9597 86.3872 46.6431 86.7686 46.4219C87.1577 46.2007 87.6115 46.0901 88.1302 46.0901C88.7099 46.0901 89.1943 46.2122 89.5833 46.4563C89.98 46.7003 90.2813 47.0474 90.4872 47.4975C90.6932 47.9475 90.7962 48.4738 90.7962 49.0764V49.2709C90.7962 49.3549 90.7695 49.4197 90.7161 49.4655C90.6703 49.5112 90.6093 49.5341 90.533 49.5341H86.5741C86.5741 49.5417 86.5741 49.557 86.5741 49.5799C86.5741 49.6028 86.5741 49.6218 86.5741 49.6371C86.5894 49.9498 86.658 50.2435 86.7801 50.5181C86.9021 50.7851 87.0776 51.0025 87.3064 51.1703C87.5352 51.3381 87.8099 51.422 88.1302 51.422C88.4048 51.422 88.6337 51.3801 88.8167 51.2962C88.9998 51.2123 89.1486 51.1207 89.263 51.0216C89.3774 50.9148 89.4537 50.8347 89.4918 50.7813C89.5605 50.6821 89.6139 50.6249 89.652 50.6096C89.6901 50.5868 89.7512 50.5753 89.8351 50.5753H90.3843C90.4606 50.5753 90.5216 50.5982 90.5673 50.644C90.6207 50.6821 90.6436 50.7393 90.636 50.8156C90.6284 50.93 90.5673 51.0711 90.4529 51.2389C90.3385 51.3991 90.1745 51.5593 89.9609 51.7195C89.7473 51.8797 89.488 52.0132 89.1829 52.12C88.8778 52.2191 88.5269 52.2687 88.1302 52.2687ZM86.5741 48.7446H89.7092V48.7103C89.7092 48.367 89.6444 48.0619 89.5147 47.7949C89.3926 47.528 89.2134 47.3182 88.9769 47.1656C88.7405 47.0055 88.4582 46.9254 88.1302 46.9254C87.8022 46.9254 87.52 47.0055 87.2835 47.1656C87.0547 47.3182 86.8792 47.528 86.7572 47.7949C86.6352 48.0619 86.5741 48.367 86.5741 48.7103V48.7446ZM94.3382 52.2687C93.9187 52.2687 93.5564 52.1963 93.2513 52.0513C92.9461 51.8988 92.6944 51.6966 92.4961 51.4449C92.3054 51.1856 92.1605 50.8919 92.0613 50.5639C91.9698 50.2359 91.9164 49.8888 91.9011 49.5227C91.8935 49.4006 91.8897 49.2862 91.8897 49.1794C91.8897 49.0726 91.8935 48.9582 91.9011 48.8362C91.9164 48.4776 91.9698 48.1344 92.0613 47.8064C92.1605 47.4784 92.3054 47.1847 92.4961 46.9254C92.6944 46.666 92.9461 46.4639 93.2513 46.3189C93.5564 46.1664 93.9187 46.0901 94.3382 46.0901C94.7883 46.0901 95.1621 46.1702 95.4595 46.3304C95.757 46.4906 96.0011 46.6889 96.1918 46.9254V44.2937C96.1918 44.2175 96.2147 44.1564 96.2605 44.1107C96.3139 44.0573 96.3787 44.0306 96.455 44.0306H97.0042C97.0805 44.0306 97.1415 44.0573 97.1873 44.1107C97.2407 44.1564 97.2674 44.2175 97.2674 44.2937V51.8911C97.2674 51.9674 97.2407 52.0323 97.1873 52.0856C97.1415 52.1314 97.0805 52.1543 97.0042 52.1543H96.4893C96.4054 52.1543 96.3406 52.1314 96.2948 52.0856C96.249 52.0323 96.2261 51.9674 96.2261 51.8911V51.4106C96.0354 51.6547 95.7875 51.8606 95.4824 52.0284C95.1773 52.1886 94.7959 52.2687 94.3382 52.2687ZM94.5785 51.3419C94.9599 51.3419 95.265 51.2542 95.4939 51.0788C95.7227 50.9033 95.8943 50.6821 96.0088 50.4151C96.1232 50.1405 96.1842 49.8621 96.1918 49.5799C96.1994 49.4578 96.2033 49.3129 96.2033 49.1451C96.2033 48.9696 96.1994 48.8209 96.1918 48.6989C96.1842 48.4319 96.1194 48.1687 95.9973 47.9094C95.8829 47.65 95.7074 47.4364 95.471 47.2686C95.2421 47.1008 94.9447 47.0169 94.5785 47.0169C94.1895 47.0169 93.8806 47.1046 93.6517 47.2801C93.4229 47.4479 93.2589 47.6729 93.1597 47.9551C93.0606 48.2297 93.0034 48.5272 92.9881 48.8476C92.9805 49.0688 92.9805 49.29 92.9881 49.5112C93.0034 49.8316 93.0606 50.1329 93.1597 50.4151C93.2589 50.6897 93.4229 50.9148 93.6517 51.0902C93.8806 51.258 94.1895 51.3419 94.5785 51.3419Z" fill="#E5E7EB"/>
<path d="M37.6628 83.3515C37.5039 83.3515 37.3688 83.2959 37.2576 83.1846C37.1463 83.0734 37.0907 82.9383 37.0907 82.7794V81.1108C35.9147 80.9996 34.9215 80.7215 34.111 80.2765C33.3006 79.8156 32.6888 79.2674 32.2756 78.6317C31.8624 77.9802 31.6399 77.3048 31.6081 76.6056C31.6081 76.4625 31.6558 76.3434 31.7512 76.248C31.8624 76.1527 31.9895 76.105 32.1326 76.105H34.2541C34.4448 76.105 34.5957 76.1527 34.707 76.248C34.8182 76.3275 34.9056 76.4308 34.9692 76.5579C35.0804 76.8598 35.2632 77.1618 35.5174 77.4637C35.7876 77.7498 36.161 77.9881 36.6378 78.1788C37.1145 78.3695 37.7105 78.4649 38.4256 78.4649C39.5698 78.4649 40.42 78.2742 40.9762 77.8928C41.5324 77.5114 41.8105 76.9949 41.8105 76.3434C41.8105 75.8825 41.6595 75.517 41.3576 75.2468C41.0715 74.9608 40.6107 74.7065 39.975 74.4841C39.3393 74.2457 38.505 73.9994 37.4721 73.7451C36.2961 73.4591 35.3029 73.1174 34.4924 72.7201C33.682 72.3069 33.0702 71.7904 32.657 71.1707C32.2597 70.5509 32.061 69.7643 32.061 68.8108C32.061 67.5872 32.506 66.5463 33.3959 65.6881C34.2859 64.83 35.5174 64.3056 37.0907 64.1149V62.4701C37.0907 62.3112 37.1463 62.1761 37.2576 62.0649C37.3688 61.9536 37.5039 61.898 37.6628 61.898H39.1169C39.2758 61.898 39.4109 61.9536 39.5221 62.0649C39.6333 62.1761 39.689 62.3112 39.689 62.4701V64.1625C40.7696 64.3215 41.6754 64.6393 42.4064 65.116C43.1374 65.5928 43.6936 66.141 44.075 66.7608C44.4564 67.3647 44.655 67.9527 44.6709 68.5248C44.6709 68.6519 44.6233 68.7711 44.5279 68.8823C44.4484 68.9777 44.3293 69.0253 44.1703 69.0253H41.9535C41.8105 69.0253 41.6754 68.9935 41.5483 68.93C41.4211 68.8664 41.3178 68.7472 41.2384 68.5724C41.1589 68.0798 40.857 67.6587 40.3326 67.3091C39.8081 66.9594 39.1248 66.7846 38.2826 66.7846C37.4244 66.7846 36.7331 66.9435 36.2087 67.2614C35.7002 67.5792 35.4459 68.0718 35.4459 68.7393C35.4459 69.1842 35.5731 69.5577 35.8273 69.8596C36.0816 70.1457 36.4948 70.3999 37.0669 70.6224C37.6548 70.8449 38.4335 71.0833 39.4029 71.3375C40.7537 71.6395 41.8502 71.9891 42.6924 72.3864C43.5506 72.7837 44.1783 73.2922 44.5756 73.912C44.9888 74.5158 45.1953 75.2866 45.1953 76.2242C45.1953 77.1459 44.9649 77.9563 44.5041 78.6556C44.0591 79.3389 43.4234 79.8951 42.5971 80.3242C41.7707 80.7373 40.8014 81.0075 39.689 81.1346V82.7794C39.689 82.9383 39.6333 83.0734 39.5221 83.1846C39.4109 83.2959 39.2758 83.3515 39.1169 83.3515H37.6628ZM47.712 80.9678C47.5531 80.9678 47.418 80.9122 47.3068 80.8009C47.1956 80.6897 47.1399 80.5546 47.1399 80.3957V79.18C47.1399 79.037 47.1717 78.8701 47.2353 78.6794C47.3147 78.4728 47.4816 78.2662 47.7359 78.0596L51.5022 74.3172C52.551 73.4908 53.3932 72.7916 54.0289 72.2195C54.6804 71.6315 55.1492 71.0992 55.4353 70.6224C55.7372 70.1298 55.8882 69.6451 55.8882 69.1684C55.8882 68.4532 55.6896 67.8732 55.2923 67.4282C54.9109 66.9833 54.2991 66.7608 53.4568 66.7608C52.9006 66.7608 52.4318 66.88 52.0504 67.1184C51.669 67.3408 51.3671 67.6428 51.1446 68.0242C50.938 68.4056 50.795 68.8267 50.7155 69.2875C50.6837 69.4941 50.5963 69.6372 50.4533 69.7166C50.3103 69.7961 50.1673 69.8358 50.0242 69.8358H47.9027C47.7597 69.8358 47.6405 69.7881 47.5452 69.6928C47.4498 69.5974 47.4022 69.4862 47.4022 69.3591C47.418 68.6757 47.5611 68.0162 47.8312 67.3806C48.1014 66.729 48.4907 66.1569 48.9992 65.6643C49.5237 65.1558 50.1593 64.7505 50.9062 64.4486C51.6531 64.1467 52.4954 63.9957 53.433 63.9957C54.752 63.9957 55.8405 64.2182 56.6987 64.6631C57.5727 65.1081 58.2242 65.712 58.6533 66.4748C59.0983 67.2375 59.3208 68.0957 59.3208 69.0492C59.3208 69.7961 59.1777 70.4873 58.8917 71.123C58.6056 71.7428 58.1925 72.3466 57.6522 72.9346C57.1118 73.5067 56.4603 74.0947 55.6975 74.6986L52.3126 78.1311H59.1062C59.281 78.1311 59.4161 78.1868 59.5115 78.298C59.6227 78.3934 59.6783 78.5284 59.6783 78.7032V80.3957C59.6783 80.5546 59.6227 80.6897 59.5115 80.8009C59.4161 80.9122 59.281 80.9678 59.1062 80.9678H47.712ZM62.4706 80.9678C62.3117 80.9678 62.1766 80.9122 62.0654 80.8009C61.9541 80.6897 61.8985 80.5546 61.8985 80.3957V79.18C61.8985 79.037 61.9303 78.8701 61.9939 78.6794C62.0733 78.4728 62.2402 78.2662 62.4945 78.0596L66.2607 74.3172C67.3096 73.4908 68.1518 72.7916 68.7875 72.2195C69.439 71.6315 69.9078 71.0992 70.1939 70.6224C70.4958 70.1298 70.6468 69.6451 70.6468 69.1684C70.6468 68.4532 70.4481 67.8732 70.0509 67.4282C69.6695 66.9833 69.0576 66.7608 68.2154 66.7608C67.6592 66.7608 67.1904 66.88 66.809 67.1184C66.4276 67.3408 66.1257 67.6428 65.9032 68.0242C65.6966 68.4056 65.5536 68.8267 65.4741 69.2875C65.4423 69.4941 65.3549 69.6372 65.2119 69.7166C65.0689 69.7961 64.9259 69.8358 64.7828 69.8358H62.6613C62.5183 69.8358 62.3991 69.7881 62.3038 69.6928C62.2084 69.5974 62.1607 69.4862 62.1607 69.3591C62.1766 68.6757 62.3196 68.0162 62.5898 67.3806C62.86 66.729 63.2493 66.1569 63.7578 65.6643C64.2822 65.1558 64.9179 64.7505 65.6648 64.4486C66.4117 64.1467 67.254 63.9957 68.1915 63.9957C69.5105 63.9957 70.5991 64.2182 71.4572 64.6631C72.3313 65.1081 72.9828 65.712 73.4119 66.4748C73.8569 67.2375 74.0793 68.0957 74.0793 69.0492C74.0793 69.7961 73.9363 70.4873 73.6503 71.123C73.3642 71.7428 72.951 72.3466 72.4107 72.9346C71.8704 73.5067 71.2189 74.0947 70.4561 74.6986L67.0712 78.1311H73.8648C74.0396 78.1311 74.1747 78.1868 74.27 78.298C74.3813 78.3934 74.4369 78.5284 74.4369 78.7032V80.3957C74.4369 80.5546 74.3813 80.6897 74.27 80.8009C74.1747 80.9122 74.0396 80.9678 73.8648 80.9678H62.4706ZM84.8372 80.9678C84.6783 80.9678 84.5432 80.9122 84.432 80.8009C84.3207 80.6897 84.2651 80.5546 84.2651 80.3957V77.3445H76.7087C76.5339 77.3445 76.3909 77.2889 76.2796 77.1777C76.1843 77.0664 76.1366 76.9313 76.1366 76.7724V75.1515C76.1366 75.0561 76.1525 74.9449 76.1843 74.8178C76.232 74.6748 76.3035 74.5476 76.3988 74.4364L83.4308 64.687C83.6374 64.4168 83.9314 64.2817 84.3128 64.2817H86.911C87.0699 64.2817 87.205 64.3373 87.3163 64.4486C87.4275 64.5598 87.4831 64.6949 87.4831 64.8538V74.5317H89.6046C89.7953 74.5317 89.9383 74.5873 90.0337 74.6986C90.1449 74.7939 90.2006 74.929 90.2006 75.1038V76.7724C90.2006 76.9313 90.1449 77.0664 90.0337 77.1777C89.9225 77.2889 89.7874 77.3445 89.6285 77.3445H87.4831V80.3957C87.4831 80.5546 87.4275 80.6897 87.3163 80.8009C87.205 80.9122 87.0699 80.9678 86.911 80.9678H84.8372ZM79.45 74.6271H84.3366V67.7381L79.45 74.6271ZM98.3849 81.2061C97.2725 81.2061 96.3111 81.0711 95.5006 80.8009C94.6901 80.5308 94.0148 80.1811 93.4744 79.7521C92.95 79.3071 92.5527 78.8304 92.2826 78.3218C92.0124 77.7974 91.8694 77.281 91.8535 76.7724C91.8535 76.6294 91.9012 76.5182 91.9965 76.4387C92.1078 76.3434 92.2349 76.2957 92.3779 76.2957H94.5233C94.6822 76.2957 94.8173 76.3275 94.9285 76.391C95.0398 76.4546 95.1351 76.5817 95.2146 76.7724C95.3576 77.2015 95.588 77.5432 95.9058 77.7974C96.2396 78.0517 96.621 78.2344 97.05 78.3457C97.4791 78.441 97.932 78.4887 98.4088 78.4887C99.3622 78.4887 100.117 78.2662 100.673 77.8213C101.245 77.3604 101.531 76.7089 101.531 75.8666C101.531 75.0244 101.269 74.4205 100.745 74.055C100.22 73.6736 99.4894 73.4829 98.5518 73.4829H96.0965C95.9217 73.4829 95.7787 73.4352 95.6675 73.3399C95.5562 73.2286 95.5006 73.0856 95.5006 72.9108V71.9096C95.5006 71.7507 95.5324 71.6156 95.596 71.5044C95.6754 71.3773 95.7549 71.274 95.8343 71.1945L100.101 67.023H93.2838C93.1089 67.023 92.9659 66.9674 92.8547 66.8561C92.7593 66.7449 92.7117 66.6098 92.7117 66.4509V64.8777C92.7117 64.7029 92.7593 64.5598 92.8547 64.4486C92.9659 64.3373 93.1089 64.2817 93.2838 64.2817H103.51C103.685 64.2817 103.828 64.3373 103.939 64.4486C104.05 64.5598 104.106 64.7029 104.106 64.8777V66.3079C104.106 66.4509 104.074 66.578 104.01 66.6893C103.947 66.8005 103.875 66.8959 103.796 66.9753L99.6721 71.2184L99.9582 71.2422C100.928 71.3216 101.786 71.5441 102.533 71.9096C103.295 72.2592 103.883 72.7757 104.297 73.4591C104.726 74.1424 104.94 75.0005 104.94 76.0335C104.94 77.1141 104.654 78.0437 104.082 78.8224C103.526 79.5852 102.755 80.1732 101.77 80.5864C100.785 80.9996 99.6562 81.2061 98.3849 81.2061ZM107.416 82.7556C107.273 82.7556 107.162 82.7079 107.083 82.6125C107.003 82.5172 106.971 82.398 106.987 82.255L107.631 78.2027C107.663 77.9961 107.734 77.8213 107.845 77.6782C107.973 77.5193 108.155 77.4399 108.394 77.4399H110.587C110.714 77.4399 110.817 77.4875 110.897 77.5829C110.976 77.6623 111.016 77.7656 111.016 77.8928C111.016 78.004 110.992 78.1073 110.944 78.2027L109.419 82.1596C109.355 82.3185 109.26 82.4536 109.133 82.5649C109.021 82.692 108.855 82.7556 108.632 82.7556H107.416ZM113.916 80.9678C113.757 80.9678 113.622 80.9122 113.511 80.8009C113.4 80.6897 113.344 80.5546 113.344 80.3957V79.18C113.344 79.037 113.376 78.8701 113.439 78.6794C113.519 78.4728 113.686 78.2662 113.94 78.0596L117.706 74.3172C118.755 73.4908 119.597 72.7916 120.233 72.2195C120.885 71.6315 121.353 71.0992 121.639 70.6224C121.941 70.1298 122.092 69.6451 122.092 69.1684C122.092 68.4532 121.894 67.8732 121.496 67.4282C121.115 66.9833 120.503 66.7608 119.661 66.7608C119.105 66.7608 118.636 66.88 118.255 67.1184C117.873 67.3408 117.571 67.6428 117.349 68.0242C117.142 68.4056 116.999 68.8267 116.92 69.2875C116.888 69.4941 116.8 69.6372 116.657 69.7166C116.514 69.7961 116.371 69.8358 116.228 69.8358H114.107C113.964 69.8358 113.845 69.7881 113.749 69.6928C113.654 69.5974 113.606 69.4862 113.606 69.3591C113.622 68.6757 113.765 68.0162 114.035 67.3806C114.306 66.729 114.695 66.1569 115.203 65.6643C115.728 65.1558 116.363 64.7505 117.11 64.4486C117.857 64.1467 118.699 63.9957 119.637 63.9957C120.956 63.9957 122.045 64.2182 122.903 64.6631C123.777 65.1081 124.428 65.712 124.857 66.4748C125.302 67.2375 125.525 68.0957 125.525 69.0492C125.525 69.7961 125.382 70.4873 125.096 71.123C124.81 71.7428 124.397 72.3466 123.856 72.9346C123.316 73.5067 122.664 74.0947 121.902 74.6986L118.517 78.1311H125.31C125.485 78.1311 125.62 78.1868 125.716 78.298C125.827 78.3934 125.882 78.5284 125.882 78.7032V80.3957C125.882 80.5546 125.827 80.6897 125.716 80.8009C125.62 80.9122 125.485 80.9678 125.31 80.9678H113.916Z" fill="white"/>
<rect x="47.9275" y="97.457" width="62.6449" height="20.2528" rx="8.91123" fill="#DCFCE7"/>
<path d="M64.5345 104.748L60.0789 110.419H68.9901L64.5345 104.748Z" fill="#16A34A"/>
<path d="M77.2309 111.583C76.7545 111.583 76.3387 111.526 75.9833 111.413C75.6279 111.292 75.3293 111.133 75.0873 110.937C74.8454 110.74 74.6601 110.525 74.5316 110.29C74.4106 110.056 74.3463 109.814 74.3388 109.564C74.3388 109.496 74.3614 109.443 74.4068 109.406C74.4522 109.368 74.5089 109.349 74.5769 109.349H75.1327C75.2007 109.349 75.2612 109.364 75.3141 109.394C75.3671 109.424 75.4124 109.489 75.4502 109.587C75.5258 109.859 75.6544 110.071 75.8358 110.222C76.0249 110.373 76.2404 110.479 76.4823 110.54C76.7318 110.593 76.9813 110.619 77.2309 110.619C77.7526 110.619 78.176 110.494 78.5011 110.245C78.8262 109.995 78.9888 109.629 78.9888 109.145C78.9888 108.653 78.8414 108.302 78.5465 108.09C78.2516 107.878 77.8433 107.772 77.3216 107.772H76.2441C76.1685 107.772 76.1043 107.75 76.0513 107.704C76.006 107.659 75.9833 107.595 75.9833 107.512V107.205C75.9833 107.137 75.9946 107.081 76.0173 107.035C76.0476 106.982 76.0778 106.937 76.108 106.899L78.3083 104.495H74.9625C74.8869 104.495 74.8227 104.472 74.7697 104.427C74.7244 104.381 74.7017 104.317 74.7017 104.234V103.803C74.7017 103.72 74.7244 103.655 74.7697 103.61C74.8227 103.557 74.8869 103.531 74.9625 103.531H79.4878C79.571 103.531 79.6353 103.557 79.6806 103.61C79.7336 103.655 79.76 103.72 79.76 103.803V104.211C79.76 104.264 79.7449 104.313 79.7147 104.359C79.692 104.396 79.6655 104.434 79.6353 104.472L77.4464 106.91L77.6278 106.922C78.1268 106.937 78.5616 107.028 78.9321 107.194C79.3101 107.36 79.6012 107.61 79.8054 107.942C80.0171 108.268 80.123 108.68 80.123 109.179C80.123 109.685 79.9982 110.12 79.7487 110.483C79.4992 110.838 79.1551 111.111 78.7166 111.3C78.2781 111.489 77.7828 111.583 77.2309 111.583ZM81.9896 112.32C81.9291 112.32 81.88 112.298 81.8422 112.252C81.8119 112.207 81.8006 112.15 81.8082 112.082L82.069 110.46C82.0841 110.37 82.1144 110.294 82.1597 110.233C82.2127 110.165 82.2883 110.131 82.3866 110.131H83.1465C83.1994 110.131 83.241 110.15 83.2712 110.188C83.309 110.226 83.3279 110.271 83.3279 110.324C83.3279 110.385 83.3128 110.445 83.2826 110.506L82.6928 112.059C82.6626 112.135 82.621 112.196 82.568 112.241C82.5227 112.294 82.4546 112.32 82.3639 112.32H81.9896ZM89.003 111.47C88.9274 111.47 88.8631 111.447 88.8102 111.402C88.7648 111.349 88.7421 111.284 88.7421 111.209V109.576H85.0674C84.9918 109.576 84.9276 109.553 84.8746 109.508C84.8293 109.455 84.8066 109.39 84.8066 109.315V108.861C84.8066 108.831 84.8141 108.786 84.8293 108.725C84.8519 108.657 84.886 108.589 84.9313 108.521L88.3338 103.723C88.4245 103.595 88.5644 103.531 88.7534 103.531H89.57C89.6457 103.531 89.7061 103.557 89.7515 103.61C89.8044 103.655 89.8309 103.716 89.8309 103.791V108.589H90.8516C90.9348 108.589 90.9991 108.615 91.0444 108.668C91.0974 108.714 91.1238 108.774 91.1238 108.85V109.315C91.1238 109.39 91.0974 109.455 91.0444 109.508C90.9991 109.553 90.9386 109.576 90.863 109.576H89.8309V111.209C89.8309 111.284 89.8044 111.349 89.7515 111.402C89.7061 111.447 89.6457 111.47 89.57 111.47H89.003ZM86.0201 108.612H88.7534V104.721L86.0201 108.612ZM93.3025 111.47C93.1437 111.47 93.0643 111.394 93.0643 111.243C93.0643 111.198 93.0794 111.156 93.1097 111.118L98.7124 103.746C98.7653 103.678 98.8145 103.625 98.8598 103.587C98.9128 103.55 98.9884 103.531 99.0867 103.531H99.4609C99.6197 103.531 99.6991 103.606 99.6991 103.757C99.6991 103.803 99.684 103.844 99.6538 103.882L94.0624 111.254C94.0094 111.322 93.9565 111.375 93.9036 111.413C93.8582 111.451 93.7826 111.47 93.6767 111.47H93.3025ZM98.4969 111.538C97.9979 111.538 97.6085 111.398 97.3287 111.118C97.049 110.838 96.894 110.472 96.8637 110.018C96.8562 109.821 96.8524 109.655 96.8524 109.519C96.8524 109.375 96.8562 109.198 96.8637 108.986C96.8864 108.532 97.0339 108.166 97.306 107.886C97.5782 107.598 97.9752 107.455 98.4969 107.455C99.0262 107.455 99.4231 107.598 99.6878 107.886C99.96 108.166 100.111 108.532 100.141 108.986C100.157 109.198 100.164 109.375 100.164 109.519C100.164 109.655 100.157 109.821 100.141 110.018C100.111 110.472 99.9524 110.838 99.6651 111.118C99.3853 111.398 98.9959 111.538 98.4969 111.538ZM98.4969 110.789C98.6935 110.789 98.8485 110.748 98.9619 110.664C99.0829 110.581 99.1698 110.479 99.2228 110.358C99.2757 110.23 99.3059 110.101 99.3135 109.973C99.3286 109.768 99.3362 109.61 99.3362 109.496C99.3362 109.375 99.3286 109.22 99.3135 109.031C99.3059 108.827 99.2417 108.638 99.1207 108.464C98.9997 108.29 98.7918 108.203 98.4969 108.203C98.2096 108.203 98.0054 108.29 97.8845 108.464C97.7711 108.638 97.7068 108.827 97.6917 109.031C97.6841 109.22 97.6803 109.375 97.6803 109.496C97.6803 109.61 97.6841 109.768 97.6917 109.973C97.7068 110.101 97.737 110.23 97.7824 110.358C97.8353 110.479 97.9185 110.581 98.0319 110.664C98.1529 110.748 98.3079 110.789 98.4969 110.789ZM94.2552 107.512C93.7561 107.512 93.3667 107.379 93.087 107.115C92.8072 106.85 92.6522 106.491 92.622 106.037C92.6144 105.841 92.6106 105.674 92.6106 105.538C92.6106 105.394 92.6144 105.217 92.622 105.005C92.6447 104.551 92.7921 104.185 93.0643 103.905C93.3365 103.618 93.7335 103.474 94.2552 103.474C94.7844 103.474 95.1814 103.618 95.446 103.905C95.7182 104.185 95.8657 104.551 95.8884 105.005C95.9035 105.217 95.911 105.394 95.911 105.538C95.911 105.674 95.9035 105.841 95.8884 106.037C95.8657 106.491 95.7107 106.85 95.4233 107.115C95.1436 107.379 94.7542 107.512 94.2552 107.512ZM94.2552 106.808C94.4518 106.808 94.6068 106.767 94.7202 106.684C94.8411 106.6 94.9281 106.498 94.981 106.377C95.034 106.249 95.0642 106.12 95.0718 105.992C95.0869 105.788 95.0944 105.629 95.0944 105.515C95.0944 105.394 95.0869 105.239 95.0718 105.05C95.0642 104.846 94.9962 104.657 94.8676 104.483C94.7466 104.309 94.5425 104.222 94.2552 104.222C93.9678 104.222 93.7637 104.309 93.6427 104.483C93.5293 104.657 93.465 104.846 93.4499 105.05C93.4424 105.239 93.4386 105.394 93.4386 105.515C93.4386 105.629 93.4424 105.788 93.4499 105.992C93.465 106.12 93.4953 106.249 93.5406 106.377C93.5936 106.498 93.6767 106.6 93.7902 106.684C93.9036 106.767 94.0586 106.808 94.2552 106.808Z" fill="#16A34A"/>
</svg>
