<svg width="285" height="38" viewBox="0 0 285 38" fill="none" xmlns="http://www.w3.org/2000/svg">
<path d="M197.116 13.7493C197.116 6.89389 200.946 3.13965 209.882 3.13965C218.817 3.13965 222.644 6.92216 222.644 13.7493C222.644 20.5765 218.787 24.4184 209.882 24.4184C200.976 24.4184 197.116 20.6359 197.116 13.7493ZM217.421 13.7493C217.421 9.55409 215.332 7.60347 209.879 7.60347C204.426 7.60347 202.336 9.52299 202.336 13.7493C202.336 17.9757 204.454 19.9546 209.879 19.9546C215.304 19.9546 217.421 17.9757 217.421 13.7493Z" fill="white"/>
<path d="M53.3785 17.0004C53.3785 19.1856 55.1184 20.1921 61.7342 20.1921C67.2178 20.1921 68.8689 19.5701 68.8689 17.9446C68.8689 16.2314 67.709 15.9346 61.1237 15.6095C52.2768 15.1968 48.7663 13.7776 48.7663 9.13852C48.7663 4.49943 53.3202 3.13965 60.9211 3.13965C68.522 3.13965 73.2203 5.09027 73.2203 10.2015H67.9976C67.9976 7.92575 65.7636 7.366 60.3384 7.366C55.2045 7.366 53.9862 7.8692 53.9862 9.40426C53.9862 10.9393 55.2045 11.2955 61.1209 11.6489C69.127 12.0927 74.0889 12.5366 74.0889 17.7665C74.0889 23.2933 68.955 24.4156 61.4401 24.4156C53.1148 24.4156 48.153 22.9682 48.153 16.9976H53.3757L53.3785 17.0004Z" fill="white"/>
<path d="M99.0368 7.9002H89.1742V24.1243H83.9515V7.9002H74.0889V3.43921H99.0368V7.9002Z" fill="white"/>
<path d="M114.555 19.72H102.4L100.225 24.1216H94.4801L104.953 3.43652H112.002L122.503 24.1216H116.731L114.555 19.72ZM112.612 15.7594L108.494 7.36605L104.345 15.7594H112.612Z" fill="white"/>
<path d="M133.698 13.0398H146.577V24.1216H142.719L142.486 20.8705C140.571 22.9993 137.524 24.4156 133.204 24.4156C125.719 24.4156 121.135 20.6331 121.135 13.7776C121.135 6.92216 125.719 3.13965 134.072 3.13965C142.425 3.13965 146.255 6.35959 146.574 11.5019H141.265C140.974 9.93573 139.583 7.60064 134.072 7.60064C127.284 7.60064 126.355 11.4114 126.355 13.8963C126.355 16.3813 127.312 20.308 134.072 20.308C139.12 20.308 141.151 18.0633 141.265 16.4972H133.695V13.0398H133.698Z" fill="white"/>
<path d="M153.828 7.66273V11.858H170.073V15.6999H153.828V19.8979H170.073V24.1243H148.608V3.43921H170.073V7.66556H153.828V7.66273Z" fill="white"/>
<path d="M195.687 11.0298C195.687 15.6406 192.526 18.5948 187.914 18.5948H177.18V24.1216H171.957V3.43652H187.911C192.523 3.43652 195.684 6.42183 195.684 11.0298H195.687ZM190.464 11.0298C190.464 7.89752 188.028 7.89751 186.46 7.89751H177.177V14.1339H186.46C188.025 14.1339 190.464 14.1339 190.464 11.0298Z" fill="white"/>
<path d="M229.74 24.1216H224.517V3.43652H229.74V24.1216Z" fill="white"/>
<path d="M258.226 3.43652V24.1216H251.119L237.283 8.60709V24.1216H232.06V3.43652H239.139L253.006 18.9793V3.43652H258.229H258.226Z" fill="white"/>
<path d="M284.883 7.9002H275.021V24.1243H269.798V7.9002H259.936V3.43921H284.883V7.9002Z" fill="white"/>
<path d="M51.6164 36.3483C51.0531 36.3483 50.5341 36.2521 50.0568 36.0627C49.5795 35.8733 49.1688 35.6019 48.8191 35.2542C48.4695 34.9065 48.1975 34.4994 48.0005 34.033C47.8035 33.5665 47.7036 33.052 47.7036 32.4922C47.7036 31.9325 47.8007 31.4208 48.0005 30.9515C48.1975 30.4851 48.4722 30.078 48.8247 29.7303C49.1771 29.3826 49.5906 29.114 50.0651 28.9218C50.5397 28.7324 51.0614 28.6362 51.6247 28.6362C52.1881 28.6362 52.7209 28.7352 53.2037 28.9331C53.6866 29.131 54.0973 29.4221 54.4359 29.8094L53.7477 30.4879C53.4646 30.1854 53.1482 29.9621 52.7958 29.8151C52.4434 29.6681 52.066 29.5946 51.6664 29.5946C51.2667 29.5946 50.8644 29.6653 50.5092 29.8094C50.1539 29.9536 49.8459 30.1543 49.5851 30.4116C49.3242 30.6688 49.1216 30.977 48.9773 31.3332C48.833 31.6894 48.7609 32.0739 48.7609 32.4894C48.7609 32.905 48.833 33.2923 48.9773 33.6485C49.1216 34.0047 49.3242 34.31 49.5851 34.5701C49.8459 34.8273 50.1539 35.0309 50.5092 35.1722C50.8644 35.3164 51.2501 35.3871 51.6664 35.3871C52.0826 35.3871 52.4434 35.3136 52.7958 35.1666C53.1482 35.0196 53.4646 34.7906 53.7477 34.4824L54.4359 35.1609C54.0973 35.5482 53.6866 35.8422 53.2037 36.0429C52.7209 36.2437 52.1908 36.3454 51.6136 36.3454L51.6164 36.3483Z" fill="white"/>
<path d="M58.4542 36.2636L61.8037 28.7268H62.8499L66.2105 36.2636H65.1005L62.109 29.329H62.5308L59.5392 36.2636H58.4514H58.4542ZM59.8806 34.3808L60.1664 33.5185H64.3318L64.6371 34.3808H59.8806Z" fill="white"/>
<path d="M71.1141 36.2636V28.7268H74.0001C74.6495 28.7268 75.2018 28.8314 75.6596 29.0378C76.1175 29.247 76.47 29.5466 76.7169 29.9424C76.9639 30.3382 77.086 30.8075 77.086 31.3531C77.086 31.8987 76.9639 32.368 76.7169 32.7581C76.47 33.1482 76.1175 33.4507 75.6596 33.6627C75.2018 33.8748 74.6495 33.9794 74.0001 33.9794H71.6968L72.1714 33.4733V36.2607H71.1141V36.2636ZM72.1714 33.5836L71.6968 33.0464H73.9696C74.6467 33.0464 75.1574 32.8994 75.507 32.6054C75.8567 32.3114 76.0287 31.8959 76.0287 31.3559C76.0287 30.8159 75.8539 30.4004 75.507 30.1064C75.1574 29.8124 74.6467 29.6654 73.9696 29.6654H71.6968L72.1714 29.1282V33.5864V33.5836Z" fill="white"/>
<path d="M82.4447 36.2636V28.7268H83.502V36.2636H82.4447Z" fill="white"/>
<path d="M90.9947 36.2634V29.6652H88.4583V28.7295H94.5773V29.6652H92.0409V36.2634H90.9947Z" fill="white"/>
<path d="M98.0434 36.2636L101.393 28.7268H102.439L105.8 36.2636H104.69L101.698 29.329H102.12L99.1284 36.2636H98.0406H98.0434ZM99.4697 34.3808L99.7556 33.5185H103.921L104.226 34.3808H99.4697Z" fill="white"/>
<path d="M110.703 36.2636V28.7268H111.761V35.325H115.765V36.2607H110.703V36.2636Z" fill="white"/>
<path d="M38.7428 1.13818H28.2974V36.9166H38.7428V1.13818Z" fill="#0050F6"/>
<path d="M10.5089 24.9922H0.0690918V36.9193H10.5089V24.9922Z" fill="#0050F6"/>
<path d="M24.6204 13.0652H14.1833V36.9221H24.6204V13.0652Z" fill="#0050F6"/>
</svg>
