<svg width="198" height="26" viewBox="0 0 198 26" fill="none" xmlns="http://www.w3.org/2000/svg">
<g clip-path="url(#clip0_253_45)">
<path d="M136.944 9.40746C136.944 4.71689 139.604 2.14819 145.812 2.14819C152.02 2.14819 154.679 4.73623 154.679 9.40746C154.679 14.0787 151.999 16.7073 145.812 16.7073C139.626 16.7073 136.944 14.1193 136.944 9.40746ZM151.051 9.40746C151.051 6.53702 149.599 5.20239 145.811 5.20239C142.022 5.20239 140.57 6.51574 140.57 9.40746C140.57 12.2992 142.041 13.6532 145.811 13.6532C149.58 13.6532 151.051 12.2992 151.051 9.40746Z" fill="#010101"/>
<path d="M37.084 11.6319C37.084 13.127 38.2928 13.8156 42.889 13.8156C46.6987 13.8156 47.8458 13.3901 47.8458 12.2779C47.8458 11.1057 47.0399 10.9026 42.4649 10.6802C36.3186 10.3978 33.8797 9.4268 33.8797 6.25269C33.8797 3.07857 37.0435 2.14819 42.3242 2.14819C47.6048 2.14819 50.8688 3.48283 50.8688 6.97997H47.2404C47.2404 5.42289 45.6884 5.03991 41.9193 5.03991C38.3526 5.03991 37.5062 5.3842 37.5062 6.43451C37.5062 7.48481 38.3526 7.72852 42.463 7.97031C48.0251 8.27398 51.4723 8.57766 51.4723 12.156C51.4723 15.9375 47.9056 16.7054 42.6847 16.7054C36.9008 16.7054 33.4537 15.7151 33.4537 11.6299H37.0821L37.084 11.6319Z" fill="#010101"/>
<path d="M68.8045 5.40528H61.9526V16.506H58.3242V5.40528H51.4723V2.35303H68.8045V5.40528Z" fill="#010101"/>
<path d="M79.5856 13.4926H71.1412L69.6296 16.5043H65.6388L72.9149 2.35132H77.8118L85.1072 16.5043H81.0971L79.5856 13.4926ZM78.236 10.7827L75.3749 5.03994L72.4926 10.7827H78.236Z" fill="#010101"/>
<path d="M92.8846 8.92196H101.832V16.5042H99.1524L98.9904 14.2798C97.6601 15.7363 95.5432 16.7054 92.5414 16.7054C87.3418 16.7054 84.1568 14.1174 84.1568 9.4268C84.1568 4.73623 87.3418 2.14819 93.1449 2.14819C98.948 2.14819 101.609 4.35131 101.83 7.86972H98.1421C97.9397 6.79814 96.9738 5.20045 93.1449 5.20045C88.4291 5.20045 87.7833 7.80782 87.7833 9.50804C87.7833 11.2082 88.4484 13.8949 93.1449 13.8949C96.6518 13.8949 98.0631 12.3591 98.1421 11.2876H92.8827V8.92196H92.8846Z" fill="#010101"/>
<path d="M106.87 5.24281V8.11324H118.156V10.7419H106.87V13.6143H118.156V16.506H103.243V2.35303H118.156V5.24474H106.87V5.24281Z" fill="#010101"/>
<path d="M135.951 7.54673C135.951 10.7015 133.755 12.7228 130.551 12.7228H123.094V16.5043H119.465V2.35132H130.549C133.753 2.35132 135.949 4.3939 135.949 7.54673H135.951ZM132.323 7.54673C132.323 5.40358 130.63 5.40357 129.541 5.40357H123.092V9.67055H129.541C130.628 9.67055 132.323 9.67055 132.323 7.54673Z" fill="#010101"/>
<path d="M159.609 16.5043H155.98V2.35132H159.609V16.5043Z" fill="#010101"/>
<path d="M179.399 2.35132V16.5043H174.462L164.849 5.88907V16.5043H161.221V2.35132H166.139L175.773 12.9859V2.35132H179.401H179.399Z" fill="#010101"/>
<path d="M197.919 5.40528H191.067V16.506H187.439V5.40528H180.587V2.35303H197.919V5.40528Z" fill="#010101"/>
<path d="M35.8598 24.8699C35.4684 24.8699 35.1079 24.8041 34.7763 24.6746C34.4447 24.545 34.1594 24.3593 33.9165 24.1214C33.6735 23.8834 33.4846 23.6049 33.3477 23.2858C33.2108 22.9666 33.1414 22.6146 33.1414 22.2316C33.1414 21.8486 33.2089 21.4985 33.3477 21.1774C33.4846 20.8583 33.6755 20.5797 33.9203 20.3418C34.1652 20.1039 34.4524 19.9202 34.7821 19.7886C35.1118 19.659 35.4742 19.5933 35.8656 19.5933C36.257 19.5933 36.6271 19.661 36.9626 19.7964C37.2981 19.9318 37.5834 20.131 37.8186 20.396L37.3405 20.8602C37.1438 20.6532 36.924 20.5004 36.6792 20.3998C36.4344 20.2993 36.1721 20.249 35.8945 20.249C35.6169 20.249 35.3373 20.2973 35.0906 20.396C34.8438 20.4946 34.6298 20.632 34.4486 20.808C34.2673 20.984 34.1266 21.1948 34.0263 21.4385C33.9261 21.6823 33.876 21.9453 33.876 22.2297C33.876 22.514 33.9261 22.779 34.0263 23.0227C34.1266 23.2664 34.2673 23.4753 34.4486 23.6533C34.6298 23.8293 34.8438 23.9685 35.0906 24.0653C35.3373 24.1639 35.6053 24.2123 35.8945 24.2123C36.1837 24.2123 36.4344 24.162 36.6792 24.0614C36.924 23.9608 37.1438 23.8041 37.3405 23.5933L37.8186 24.0575C37.5834 24.3225 37.2981 24.5237 36.9626 24.661C36.6271 24.7983 36.2589 24.868 35.8579 24.868L35.8598 24.8699Z" fill="#010101"/>
<path d="M40.6103 24.812L42.9373 19.6553H43.6641L45.9989 24.812H45.2277L43.1494 20.0673H43.4424L41.3641 24.812H40.6083H40.6103ZM41.6012 23.5238L41.7998 22.9338H44.6937L44.9057 23.5238H41.6012Z" fill="#010101"/>
<path d="M49.4056 24.812V19.6553H51.4106C51.8618 19.6553 52.2454 19.7268 52.5636 19.868C52.8817 20.0112 53.1265 20.2162 53.2981 20.487C53.4697 20.7578 53.5545 21.0789 53.5545 21.4522C53.5545 21.8255 53.4697 22.1466 53.2981 22.4135C53.1265 22.6804 52.8817 22.8874 52.5636 23.0325C52.2454 23.1776 51.8618 23.2491 51.4106 23.2491H49.8104L50.1401 22.9029V24.8101H49.4056V24.812ZM50.1401 22.9783L49.8104 22.6108H51.3894C51.8598 22.6108 52.2146 22.5102 52.4575 22.3091C52.7004 22.1079 52.82 21.8236 52.82 21.4541C52.82 21.0847 52.6985 20.8004 52.4575 20.5992C52.2146 20.398 51.8598 20.2974 51.3894 20.2974H49.8104L50.1401 19.9299V22.9803V22.9783Z" fill="#010101"/>
<path d="M57.2773 24.812V19.6553H58.0119V24.812H57.2773Z" fill="#010101"/>
<path d="M63.2173 24.8118V20.2972H61.4552V19.657H65.7063V20.2972H63.9442V24.8118H63.2173Z" fill="#010101"/>
<path d="M68.1144 24.812L70.4414 19.6553H71.1682L73.503 24.812H72.7318L70.6535 20.0673H70.9465L68.8682 24.812H68.1124H68.1144ZM69.1053 23.5238L69.3039 22.9338H72.1977L72.4098 23.5238H69.1053Z" fill="#010101"/>
<path d="M76.9097 24.812V19.6553H77.6442V24.1698H80.4262V24.8101H76.9097V24.812Z" fill="#010101"/>
<path d="M26.916 0.778809H19.6592V25.2588H26.916V0.778809Z" fill="#0050F6"/>
<path d="M7.30109 17.0999H0.0481567V25.2605H7.30109V17.0999Z" fill="#0050F6"/>
<path d="M17.1047 8.93945H9.8537V25.2626H17.1047V8.93945Z" fill="#0050F6"/>
</g>
<defs>
<clipPath id="clip0_253_45">
<rect width="198" height="26" fill="white"/>
</clipPath>
</defs>
</svg>
