<svg width="137" height="18" viewBox="0 0 137 18" fill="none" xmlns="http://www.w3.org/2000/svg">
<g clip-path="url(#clip0_109_157)">
<path d="M94.7541 6.5127C94.7541 3.26539 96.595 1.48706 100.89 1.48706C105.186 1.48706 107.025 3.27878 107.025 6.5127C107.025 9.74663 105.171 11.5665 100.89 11.5665C96.6097 11.5665 94.7541 9.77475 94.7541 6.5127ZM104.515 6.5127C104.515 4.52548 103.51 3.6015 100.889 3.6015C98.2678 3.6015 97.2633 4.51075 97.2633 6.5127C97.2633 8.51466 98.2811 9.45203 100.889 9.45203C103.497 9.45203 104.515 8.51466 104.515 6.5127Z" fill="white"/>
<path d="M25.6591 8.05267C25.6591 9.08779 26.4955 9.56451 29.6757 9.56451C32.3117 9.56451 33.1054 9.26991 33.1054 8.49993C33.1054 7.68843 32.5478 7.54783 29.3823 7.39383C25.1295 7.19833 23.442 6.52609 23.442 4.32863C23.442 2.13117 25.6311 1.48706 29.2849 1.48706C32.9386 1.48706 35.1971 2.41104 35.1971 4.83213H32.6865C32.6865 3.75416 31.6127 3.48902 29.0047 3.48902C26.5369 3.48902 25.9512 3.72738 25.9512 4.45451C25.9512 5.18164 26.5369 5.35037 29.3809 5.51775C33.2295 5.72799 35.6146 5.93823 35.6146 8.41556C35.6146 11.0335 33.1467 11.5651 29.5343 11.5651C25.5324 11.5651 23.1472 10.8795 23.1472 8.05133H25.6578L25.6591 8.05267Z" fill="white"/>
<path d="M47.6068 3.74225H42.8658V11.4273H40.3552V3.74225H35.6143V1.62915H47.6068V3.74225Z" fill="white"/>
<path d="M55.0668 9.3409H49.2239L48.1781 11.4259H45.4167L50.4512 1.62769H53.8395L58.8873 11.4259H56.1126L55.0668 9.3409ZM54.133 7.46483L52.1534 3.48904L50.1591 7.46483H54.133Z" fill="white"/>
<path d="M64.2686 6.17659H70.4596V11.4259H68.6054L68.4933 9.8859C67.5729 10.8942 66.1082 11.5651 64.0312 11.5651C60.4334 11.5651 58.2297 9.77341 58.2297 6.5261C58.2297 3.27878 60.4334 1.48706 64.4487 1.48706C68.464 1.48706 70.3049 3.01229 70.4583 5.44812H67.9064C67.7663 4.70626 67.098 3.60016 64.4487 3.60016C61.1858 3.60016 60.7389 5.40527 60.7389 6.58234C60.7389 7.7594 61.1991 9.61942 64.4487 9.61942C66.8752 9.61942 67.8517 8.55617 67.9064 7.81431H64.2673V6.17659H64.2686Z" fill="white"/>
<path d="M73.9457 3.62977V5.61699H81.7549V7.43683H73.9457V9.42539H81.7549V11.4273H71.4365V1.62915H81.7549V3.63111H73.9457V3.62977Z" fill="white"/>
<path d="M94.0671 5.22451C94.0671 7.40858 92.5477 8.80794 90.3306 8.80794H85.1708V11.4259H82.6602V1.62769H90.3293C92.5464 1.62769 94.0658 3.04178 94.0658 5.22451H94.0671ZM91.5565 5.22451C91.5565 3.74079 90.3853 3.74079 89.6316 3.74079H85.1694V6.69484H89.6316C90.384 6.69484 91.5565 6.69484 91.5565 5.22451Z" fill="white"/>
<path d="M110.436 11.4259H107.926V1.62769H110.436V11.4259Z" fill="white"/>
<path d="M124.13 1.62769V11.4259H120.713L114.062 4.0769V11.4259H111.552V1.62769H114.955L121.621 8.99006V1.62769H124.131H124.13Z" fill="white"/>
<path d="M136.944 3.74225H132.203V11.4273H129.692V3.74225H124.951V1.62915H136.944V3.74225Z" fill="white"/>
<path d="M24.8126 17.2175C24.5418 17.2175 24.2923 17.172 24.0629 17.0823C23.8334 16.9925 23.636 16.864 23.4679 16.6993C23.2998 16.5346 23.1691 16.3417 23.0744 16.1208C22.9797 15.8998 22.9316 15.6561 22.9316 15.391C22.9316 15.1258 22.9783 14.8835 23.0744 14.6612C23.1691 14.4402 23.3012 14.2474 23.4706 14.0827C23.64 13.918 23.8388 13.7908 24.0669 13.6997C24.295 13.61 24.5458 13.5645 24.8166 13.5645C25.0874 13.5645 25.3435 13.6113 25.5756 13.7051C25.8077 13.7988 26.0051 13.9367 26.1679 14.1202L25.8371 14.4416C25.701 14.2983 25.5489 14.1925 25.3795 14.1229C25.2101 14.0532 25.0287 14.0184 24.8366 14.0184C24.6445 14.0184 24.451 14.0519 24.2803 14.1202C24.1095 14.1885 23.9615 14.2835 23.8361 14.4054C23.7107 14.5273 23.6133 14.6732 23.5439 14.842C23.4746 15.0107 23.4399 15.1928 23.4399 15.3896C23.4399 15.5865 23.4746 15.77 23.5439 15.9387C23.6133 16.1074 23.7107 16.252 23.8361 16.3752C23.9615 16.4971 24.1095 16.5935 24.2803 16.6605C24.451 16.7287 24.6365 16.7622 24.8366 16.7622C25.0367 16.7622 25.2101 16.7274 25.3795 16.6578C25.5489 16.5881 25.701 16.4797 25.8371 16.3337L26.1679 16.6551C26.0051 16.8386 25.8077 16.9778 25.5756 17.0729C25.3435 17.168 25.0887 17.2162 24.8112 17.2162L24.8126 17.2175Z" fill="white"/>
<path d="M28.1 17.1775L29.7101 13.6074H30.213L31.8284 17.1775H31.2949L29.8568 13.8927H30.0596L28.6216 17.1775H28.0986H28.1ZM28.7856 16.2856L28.923 15.8772H30.9253L31.0721 16.2856H28.7856Z" fill="white"/>
<path d="M34.1855 17.1775V13.6074H35.5729C35.885 13.6074 36.1505 13.657 36.3706 13.7547C36.5907 13.8538 36.7601 13.9958 36.8789 14.1832C36.9976 14.3707 37.0563 14.593 37.0563 14.8514C37.0563 15.1099 36.9976 15.3322 36.8789 15.517C36.7601 15.7018 36.5907 15.8451 36.3706 15.9455C36.1505 16.0459 35.885 16.0955 35.5729 16.0955H34.4657L34.6938 15.8558V17.1761H34.1855V17.1775ZM34.6938 15.908L34.4657 15.6536H35.5582C35.8837 15.6536 36.1292 15.5839 36.2972 15.4447C36.4653 15.3054 36.548 15.1086 36.548 14.8528C36.548 14.597 36.464 14.4002 36.2972 14.2609C36.1292 14.1216 35.8837 14.052 35.5582 14.052H34.4657L34.6938 13.7976V15.9093V15.908Z" fill="white"/>
<path d="M39.6318 17.1775V13.6074H40.14V17.1775H39.6318Z" fill="white"/>
<path d="M43.7418 17.1773V14.0519H42.5225V13.6086H45.464V14.0519H44.2447V17.1773H43.7418Z" fill="white"/>
<path d="M47.1301 17.1775L48.7402 13.6074H49.2431L50.8585 17.1775H50.3249L48.8869 13.8927H49.0897L47.6516 17.1775H47.1287H47.1301ZM47.8157 16.2856L47.9531 15.8772H49.9554L50.1022 16.2856H47.8157Z" fill="white"/>
<path d="M53.2157 17.1775V13.6074H53.7239V16.7329H55.6489V17.1761H53.2157V17.1775Z" fill="white"/>
<path d="M18.6237 0.539062H13.6026V17.4867H18.6237V0.539062Z" fill="#0050F6"/>
<path d="M5.05177 11.8384H0.0333252V17.488H5.05177V11.8384Z" fill="#0050F6"/>
<path d="M11.8355 6.18872H6.81836V17.4894H11.8355V6.18872Z" fill="#0050F6"/>
</g>
<defs>
<clipPath id="clip0_109_157">
<rect width="137" height="18" fill="white"/>
</clipPath>
</defs>
</svg>
