<svg width="24" height="24" viewBox="0 0 24 24" fill="none" xmlns="http://www.w3.org/2000/svg">
<path d="M12 24C18.6275 24 24 18.6275 24 12C24 5.3725 18.6275 0 12 0C5.3725 0 0 5.3725 0 12C0 18.6275 5.3725 24 12 24Z" fill="#8247E5"/>
<g clip-path="url(#clip0_359_4450)">
<path d="M15.3281 9.50706C15.0547 9.35482 14.7031 9.35482 14.3906 9.50706L12.2031 10.763L10.7188 11.5623L8.57031 12.8183C8.29688 12.9705 7.94531 12.9705 7.63281 12.8183L5.95312 11.8287C5.67969 11.6765 5.48438 11.372 5.48438 11.0295V9.12647C5.48438 8.82199 5.64062 8.51751 5.95312 8.32721L7.63281 7.37572C7.90625 7.22348 8.25781 7.22348 8.57031 7.37572L10.25 8.36527C10.5234 8.51751 10.7188 8.82199 10.7188 9.16453V10.4205L12.2031 9.58318V8.28915C12.2031 7.98468 12.0469 7.6802 11.7344 7.4899L8.60938 5.70109C8.33594 5.54885 7.98437 5.54885 7.67187 5.70109L4.46875 7.52796C4.15625 7.6802 4 7.98468 4 8.28915V11.8668C4 12.1712 4.15625 12.4757 4.46875 12.666L7.63281 14.4548C7.90625 14.6071 8.25781 14.6071 8.57031 14.4548L10.7188 13.2369L12.2031 12.3996L14.3516 11.1817C14.625 11.0295 14.9766 11.0295 15.2891 11.1817L16.9688 12.1332C17.2422 12.2854 17.4375 12.5899 17.4375 12.9324V14.8354C17.4375 15.1399 17.2812 15.4444 16.9688 15.6347L15.3281 16.5862C15.0547 16.7384 14.7031 16.7384 14.3906 16.5862L12.7109 15.6347C12.4375 15.4824 12.2422 15.178 12.2422 14.8354V13.6175L10.7578 14.4548V15.7108C10.7578 16.0153 10.9141 16.3198 11.2266 16.51L14.3906 18.2989C14.6641 18.4511 15.0156 18.4511 15.3281 18.2989L18.4922 16.51C18.7656 16.3578 18.9609 16.0533 18.9609 15.7108V12.0951C18.9609 11.7906 18.8047 11.4862 18.4922 11.2959L15.3281 9.50706Z" fill="white"/>
</g>
<defs>
<clipPath id="clip0_359_4450">
<rect width="15" height="12.75" fill="white" transform="translate(4 5.625)"/>
</clipPath>
</defs>
</svg>
