<svg width="150" height="59" viewBox="0 0 150 59" fill="none" xmlns="http://www.w3.org/2000/svg">
<path d="M45.1437 4.5166C47.7927 4.5166 50.4418 4.5166 53.1711 4.5166C53.1711 15.5092 53.1711 26.5019 53.1711 37.8276C52.6846 37.7463 52.2227 37.6685 51.7474 37.5541C49.5113 37.0358 47.4463 36.9807 45.1437 36.9807C45.1437 26.2676 45.1437 15.5544 45.1437 4.5166Z" fill="white"/>
<path d="M34.0179 13.9736C36.667 13.9736 39.316 13.9736 42.0454 13.9736C42.0454 21.7523 42.0454 29.531 42.0454 37.5454C40.8835 37.8249 39.7216 38.1044 38.5246 38.3923C37.8781 38.5868 37.2426 38.7817 36.6057 39.001C36.3195 39.0982 36.0331 39.1947 35.7464 39.2905C35.6265 39.3316 35.5066 39.3728 35.383 39.4152C34.9377 39.54 34.4757 39.5971 34.0179 39.6626C34.0179 31.1853 34.0179 22.7079 34.0179 13.9736Z" fill="white"/>
<path d="M22.8922 22.7251C25.4948 22.7251 28.0974 22.7251 30.7788 22.7251C30.7788 28.7804 30.7788 34.8356 30.7788 41.0744C29.3846 41.6799 27.9903 42.2854 26.5539 42.9093C25.0065 43.631 25.0065 43.631 23.4651 44.3646C23.1739 44.4619 23.1739 44.4619 22.7514 44.3208C22.7979 37.1942 22.8444 30.0676 22.8922 22.7251Z" fill="white"/>
<path d="M53.7344 47.2846C53.8593 47.3151 53.9842 47.3457 54.1129 47.3772C56.0051 47.8878 57.5629 48.7632 59.086 49.9664C59.2035 50.0579 59.3209 50.1494 59.4419 50.2437C60.4854 51.113 61.6019 52.3326 62.0435 53.6362C61.4356 53.6362 61.2086 53.3352 60.776 52.9305C60.776 52.8373 60.776 52.7442 60.776 52.6482C60.6309 52.5947 60.6309 52.5947 60.4828 52.5401C60.1006 52.3781 59.748 52.1885 59.3879 51.9826C52.1052 47.8601 42.2833 49.4222 34.5813 51.519C34.4212 51.5765 34.2611 51.634 34.0961 51.6932C33.7043 51.8109 33.5539 51.7738 33.173 51.6602C39.3617 48.5542 46.7014 45.4187 53.7344 47.2846Z" fill="white"/>
<path d="M117.39 40.0859C117.902 40.0859 118.413 40.0859 118.94 40.0859C118.953 41.5463 118.949 43.0026 118.878 44.4615C118.872 44.5803 118.867 44.6991 118.861 44.8214C118.855 44.9327 118.849 45.0439 118.843 45.1585C118.836 45.3045 118.836 45.3045 118.828 45.4534C118.799 45.7319 118.799 45.7319 118.658 46.2965C119.82 46.2965 120.982 46.2965 122.179 46.2965C122.132 46.6691 122.086 47.0417 122.038 47.4257C120.411 47.4257 118.785 47.4257 117.109 47.4257C117.109 46.4299 117.119 45.4479 117.17 44.4555C117.177 44.3292 117.183 44.203 117.189 44.0729C117.209 43.6761 117.229 43.2792 117.25 42.8824C117.263 42.6107 117.277 42.339 117.29 42.0673C117.323 41.4068 117.357 40.7464 117.39 40.0859Z" fill="white"/>
<path d="M99.6456 40.0859C100.157 40.0859 100.668 40.0859 101.195 40.0859C101.205 41.7342 101.174 43.3787 101.124 45.0261C101.117 45.2606 101.111 45.4952 101.104 45.7297C101.088 46.295 101.071 46.8603 101.054 47.4257C100.496 47.4257 99.9385 47.4257 99.3639 47.4257C99.4413 44.9782 99.5263 42.5318 99.6456 40.0859Z" fill="white"/>
<path d="M102.181 40.0859C104.179 40.0859 106.177 40.0859 108.236 40.0859C108.236 40.4586 108.236 40.8312 108.236 41.2151C107.493 41.2151 106.749 41.2151 105.983 41.2151C105.97 41.657 105.97 41.657 105.957 42.1078C105.948 42.3998 105.939 42.6918 105.931 42.9838C105.925 43.1835 105.919 43.3832 105.913 43.5828C105.876 44.867 105.813 46.1454 105.701 47.4257C105.19 47.4257 104.679 47.4257 104.152 47.4257C104.224 45.3537 104.301 43.2841 104.434 41.2151C103.69 41.2151 102.947 41.2151 102.181 41.2151C102.181 40.8425 102.181 40.4699 102.181 40.0859Z" fill="white"/>
<path d="M102.181 40.0859C104.179 40.0859 106.177 40.0859 108.236 40.0859C108.236 40.4586 108.236 40.8312 108.236 41.2151C107.586 41.2151 106.935 41.2151 106.265 41.2151C106.218 41.122 106.172 41.0288 106.124 40.9328C107.1 41.0027 107.1 41.0027 108.095 41.074C108.095 40.7945 108.095 40.515 108.095 40.2271C106.283 40.2271 104.47 40.2271 102.603 40.2271C102.557 40.5066 102.51 40.786 102.462 41.074C103.113 41.074 103.763 41.074 104.434 41.074C104.434 41.1206 104.434 41.1671 104.434 41.2151C103.69 41.2151 102.947 41.2151 102.181 41.2151C102.181 40.8425 102.181 40.4699 102.181 40.0859Z" fill="white"/>
<path d="M93.1673 40.0862C93.7775 40.0697 94.3877 40.0597 94.9981 40.0509C95.17 40.0462 95.3419 40.0415 95.5191 40.0366C96.5378 40.0255 97.2459 40.0647 98.0964 40.6508C98.519 41.3547 98.4633 42.1121 98.3781 42.9092C98.0575 43.6011 97.6487 43.9804 96.9697 44.3207C96.3805 44.4487 95.8217 44.5539 95.2435 44.3493C94.9981 44.1795 94.9981 44.1795 94.8925 43.7384C94.875 43.5376 94.875 43.5376 94.8573 43.3326C94.9422 43.3241 95.0272 43.3155 95.1147 43.3067C95.2273 43.2949 95.3398 43.2831 95.4558 43.2709C95.5669 43.2594 95.678 43.2479 95.7925 43.2361C96.0999 43.1948 96.3891 43.1321 96.6881 43.0503C96.7194 42.8477 96.7483 42.6447 96.7761 42.4416C96.7924 42.3286 96.8088 42.2156 96.8256 42.0992C96.8592 41.7394 96.8592 41.7394 96.5472 41.3565C96.076 41.2737 96.076 41.2737 95.5438 41.2595C95.3634 41.2502 95.1829 41.2409 94.997 41.2314C94.7884 41.2235 94.7884 41.2235 94.5756 41.2154C94.5721 41.3634 94.5685 41.5114 94.5649 41.6639C94.5516 42.2174 94.5375 42.7709 94.5232 43.3244C94.5171 43.5631 94.5112 43.8018 94.5056 44.0406C94.4973 44.3854 94.4884 44.7301 94.4793 45.0749C94.477 45.1802 94.4746 45.2856 94.4722 45.3941C94.4532 46.0797 94.3881 46.7464 94.2939 47.4259C93.8292 47.4259 93.3644 47.4259 92.8856 47.4259C92.9663 44.9787 93.0551 42.5322 93.1673 40.0862Z" fill="white"/>
<path d="M96.8289 40.9331C96.9684 41.0263 97.1078 41.1194 97.2514 41.2154C97.2979 41.1688 97.3444 41.1222 97.3923 41.0743C97.5782 41.0743 97.7641 41.0743 97.9556 41.0743C98.3061 41.7355 98.2386 42.1965 98.0964 42.9092C97.957 42.9791 97.957 42.9791 97.8148 43.0503C97.7538 43.1813 97.7538 43.1813 97.6915 43.315C97.4641 43.7456 97.1755 43.9734 96.7112 44.12C96.3789 44.1849 96.0758 44.1933 95.7375 44.1883C95.6249 44.1871 95.5124 44.1858 95.3964 44.1845C95.3114 44.1828 95.2265 44.1812 95.1389 44.1795C95.1854 43.9466 95.2319 43.7137 95.2798 43.4738C95.3883 43.4567 95.4969 43.4396 95.6088 43.4219C95.75 43.3983 95.8912 43.3746 96.0367 43.3503C96.2475 43.3159 96.2475 43.3159 96.4625 43.2808C96.849 43.2203 96.849 43.2203 97.1106 42.9092C97.119 42.5456 97.119 42.5456 97.0666 42.1417C97.0456 41.9367 97.0456 41.9367 97.0242 41.7276C96.9787 41.3423 96.9787 41.3423 96.8289 40.9331Z" fill="white"/>
<path d="M97.8147 40.6509C97.9077 40.6509 98.0006 40.6509 98.0964 40.6509C98.5176 41.3567 98.4633 42.1123 98.3781 42.9093C98.0576 43.6012 97.6488 43.9805 96.9698 44.3207C96.4998 44.4214 96.0422 44.4868 95.5614 44.4619C95.422 44.3687 95.2826 44.2756 95.1389 44.1796C95.3298 44.1515 95.3298 44.1515 95.5246 44.1228C95.6907 44.0979 95.8568 44.0729 96.0279 44.0473C96.193 44.0227 96.358 43.9981 96.528 43.9728C96.9721 43.9085 96.9721 43.9085 97.3923 43.7561C97.5648 43.3315 97.5648 43.3315 97.6739 42.9093C97.7669 42.9093 97.8598 42.9093 97.9556 42.9093C98.079 42.1794 98.1445 41.7548 97.8147 41.0743C97.8147 40.9346 97.8147 40.7949 97.8147 40.6509Z" fill="white"/>
<path d="M94.5756 40.792C94.715 40.8619 94.715 40.8619 94.8573 40.9331C95.3646 40.9724 95.8718 40.9963 96.38 41.0208C96.8289 41.0743 96.8289 41.0743 97.1106 41.3566C97.1689 41.7547 97.1689 41.7547 97.1986 42.2211C97.2091 42.3758 97.2197 42.5304 97.2305 42.6898C97.2409 42.8683 97.2409 42.8683 97.2514 43.0504C96.7127 43.3038 96.3251 43.467 95.7287 43.5356C95.5805 43.5618 95.4324 43.588 95.2798 43.615C95.0667 43.8882 95.0667 43.8882 94.9981 44.1796C94.9516 43.9001 94.9052 43.6206 94.8573 43.3327C94.9422 43.3241 95.0272 43.3156 95.1147 43.3067C95.2836 43.289 95.2836 43.289 95.4558 43.2709C95.5669 43.2594 95.678 43.248 95.7925 43.2362C96.0999 43.1949 96.3892 43.1321 96.6881 43.0504C96.7195 42.8478 96.7483 42.6448 96.7761 42.4417C96.7925 42.3287 96.8088 42.2157 96.8256 42.0993C96.8593 41.7395 96.8593 41.7395 96.5473 41.3566C96.076 41.2737 96.076 41.2737 95.5438 41.2595C95.3634 41.2503 95.1829 41.241 94.997 41.2314C94.858 41.2262 94.7189 41.2209 94.5756 41.2154C94.5756 41.0757 94.5756 40.936 94.5756 40.792Z" fill="white"/>
<path d="M124.009 24.9834C124.892 24.9834 125.776 24.9834 126.685 24.9834C126.698 25.8806 126.677 26.7697 126.624 27.6652C126.542 29.0611 126.504 30.4579 126.465 31.8556C126.462 31.9691 126.459 32.0827 126.456 32.1996C126.438 32.8524 126.421 33.5052 126.404 34.158C125.474 34.158 124.545 34.158 123.587 34.158C123.726 31.1304 123.866 28.1028 124.009 24.9834Z" fill="white"/>
<path d="M124.15 21.7368C125.033 21.7368 125.916 21.7368 126.826 21.7368C126.826 22.866 126.826 22.866 126.685 23.4306C125.849 23.4306 125.012 23.4306 124.15 23.4306C124.15 22.8716 124.15 22.3127 124.15 21.7368Z" fill="white"/>
<path d="M124.15 21.7368C124.987 21.7368 125.823 21.7368 126.685 21.7368C126.639 21.9231 126.592 22.1094 126.544 22.3014C126.405 22.2083 126.266 22.1151 126.122 22.0191C125.777 21.9797 125.777 21.9797 125.409 21.9926C125.285 21.9936 125.162 21.9945 125.034 21.9954C124.709 21.999 124.709 21.999 124.432 22.1603C124.432 22.4863 124.432 22.8124 124.432 23.1483C125.408 23.2182 125.408 23.2182 126.404 23.2894C126.404 23.336 126.404 23.3826 126.404 23.4306C125.66 23.4306 124.916 23.4306 124.15 23.4306C124.15 22.8716 124.15 22.3127 124.15 21.7368Z" fill="white"/>
<path d="M124.009 26.6772C124.056 26.6772 124.102 26.6772 124.15 26.6772C124.159 26.7877 124.167 26.8981 124.176 27.0119C124.188 27.1548 124.2 27.2976 124.212 27.4447C124.223 27.5872 124.235 27.7297 124.247 27.8765C124.253 28.2209 124.253 28.2209 124.432 28.371C124.438 28.7003 124.438 29.0298 124.432 29.3591C124.339 29.3591 124.246 29.3591 124.15 29.3591C124.15 29.6385 124.15 29.918 124.15 30.206C124.104 30.206 124.057 30.206 124.009 30.206C124.009 29.0415 124.009 27.877 124.009 26.6772Z" fill="white"/>
<path d="M126.685 21.7368C126.732 21.7368 126.778 21.7368 126.826 21.7368C126.846 22.9467 126.846 22.9467 126.685 23.4306C126.592 23.4306 126.499 23.4306 126.404 23.4306C126.404 23.3374 126.404 23.2443 126.404 23.1483C126.311 23.1017 126.218 23.0551 126.122 23.0072C125.964 22.716 125.964 22.716 125.84 22.4426C126.119 22.396 126.398 22.3494 126.685 22.3014C126.685 22.1151 126.685 21.9288 126.685 21.7368Z" fill="white"/>
<path d="M124.009 24.9834C124.149 25.1231 124.288 25.2629 124.432 25.4068C124.525 25.4534 124.618 25.5 124.714 25.548C124.573 26.5965 124.573 26.5965 124.432 27.1006C124.385 27.1006 124.339 27.1006 124.291 27.1006C124.245 26.8677 124.198 26.6348 124.15 26.3949C124.104 26.3949 124.057 26.3949 124.009 26.3949C124.009 25.9291 124.009 25.4633 124.009 24.9834Z" fill="white"/>
<path d="M68.2401 22.8662C68.2401 23.5649 68.2401 24.2636 68.2401 24.9834C68.9837 25.03 69.7272 25.0766 70.4934 25.1246C70.4469 25.7301 70.4004 26.3356 70.3525 26.9595C69.6089 26.9595 68.8654 26.9595 68.0992 26.9595C68.0895 27.6554 68.0811 28.351 68.076 29.0469C68.0739 29.2837 68.071 29.5204 68.0674 29.7571C68.0622 30.0973 68.0598 30.4374 68.058 30.7777C68.0558 30.8836 68.0536 30.9894 68.0514 31.0985C68.0501 31.6696 68.0501 31.6696 68.28 32.1793C68.9232 32.5621 69.9267 32.3002 70.6342 32.182C70.7286 32.4347 70.8224 32.6876 70.9159 32.9407C70.9681 33.0815 71.0204 33.2223 71.0743 33.3674C71.1975 33.7346 71.1975 33.7346 71.1975 34.0169C67.8418 34.8184 67.8418 34.8184 66.3828 34.2728C65.8081 33.9015 65.4987 33.5374 65.2826 32.8877C65.2146 31.5549 65.3242 30.22 65.4234 28.8915C65.4371 28.7026 65.4506 28.5138 65.4641 28.325C65.4969 27.8698 65.5303 27.4146 65.5643 26.9595C65.146 26.9595 64.7277 26.9595 64.2968 26.9595C64.293 26.7066 64.2902 26.4537 64.288 26.2008C64.2863 26.06 64.2847 25.9192 64.283 25.7741C64.2968 25.4069 64.2968 25.4069 64.4376 25.1246C64.8559 25.1246 65.2741 25.1246 65.7051 25.1246C65.7516 24.5191 65.798 23.9135 65.8459 23.2897C66.1656 23.2185 66.4854 23.1481 66.8053 23.0779C67.0725 23.019 67.0725 23.019 67.345 22.9588C67.8176 22.8662 67.8176 22.8662 68.2401 22.8662Z" fill="white"/>
<path d="M64.4376 25.1245C64.8094 25.1245 65.1812 25.1245 65.5643 25.1245C65.5918 25.3273 65.618 25.5302 65.6435 25.7332C65.6582 25.8462 65.6729 25.9592 65.6881 26.0756C65.7051 26.3948 65.7051 26.3948 65.5643 26.8183C65.1925 26.8183 64.8207 26.8183 64.4376 26.8183C64.4376 26.2593 64.4376 25.7004 64.4376 25.1245Z" fill="white"/>
<path d="M67.6768 27.1006C67.7697 27.1006 67.8627 27.1006 67.9584 27.1006C67.9584 27.939 67.9584 28.7774 67.9584 29.6413C67.8655 29.5481 67.7725 29.4549 67.6768 29.359C67.3854 29.2683 67.3854 29.2683 67.1134 29.2178C67.087 28.8826 67.087 28.8826 67.1134 28.5121C67.2529 28.4189 67.3923 28.3258 67.5359 28.2298C67.6289 28.2764 67.7218 28.3229 67.8176 28.3709C67.7711 27.9517 67.7246 27.5325 67.6768 27.1006Z" fill="white"/>
<path d="M68.24 22.8662C68.24 23.5649 68.24 24.2636 68.24 24.9834C68.1936 24.9834 68.1471 24.9834 68.0992 24.9834C68.0527 24.5642 68.0062 24.145 67.9584 23.7131C67.4936 23.5734 67.0289 23.4336 66.55 23.2897C66.55 23.2431 66.55 23.1965 66.55 23.1485C66.7524 23.1009 66.9548 23.054 67.1574 23.0074C67.2701 22.9812 67.3829 22.955 67.499 22.928C67.8175 22.8662 67.8175 22.8662 68.24 22.8662Z" fill="white"/>
<path d="M67.8176 30.6294C67.864 30.6294 67.9105 30.6294 67.9584 30.6294C67.9636 30.7162 67.9689 30.803 67.9743 30.8924C67.9836 31.0065 67.9929 31.1206 68.0024 31.2381C68.0106 31.3511 68.0187 31.4641 68.0271 31.5805C68.1126 31.9592 68.2149 32.0911 68.5217 32.3232C68.9595 32.4258 68.9595 32.4258 69.3667 32.4643C69.3667 32.5109 69.3667 32.5575 69.3667 32.6055C68.1797 32.8071 68.1797 32.8071 67.5359 32.4643C67.5359 32.3712 67.5359 32.278 67.5359 32.182C67.6288 32.182 67.7218 32.182 67.8176 32.182C67.8176 31.6697 67.8176 31.1573 67.8176 30.6294Z" fill="white"/>
<path d="M64.5784 25.2656C64.8108 25.2656 65.0432 25.2656 65.2826 25.2656C65.1896 25.3588 65.0967 25.4519 65.0009 25.5479C65.0735 25.6032 65.1462 25.6585 65.221 25.7155C65.2878 25.8 65.3546 25.8844 65.4234 25.9714C65.3794 26.3507 65.3794 26.3507 65.2826 26.6771C65.0967 26.6305 64.9108 26.584 64.7193 26.536C64.7193 26.4894 64.7193 26.4428 64.7193 26.3948C64.696 26.3104 64.6728 26.226 64.6488 26.139C64.5784 25.8302 64.5784 25.8302 64.5784 25.2656Z" fill="white"/>
<path d="M70.6342 32.7466C70.9146 33.1681 71.0484 33.5366 71.1975 34.0169C70.9187 34.0635 70.6398 34.1101 70.3525 34.1581C70.399 34.03 70.4455 33.9019 70.4934 33.7699C70.6618 33.3012 70.6618 33.3012 70.6342 32.7466Z" fill="white"/>
<path d="M87.8383 40.0723C88.1103 40.0747 88.1103 40.0747 88.3878 40.0772C88.5696 40.0785 88.7513 40.0798 88.9385 40.0811C89.0792 40.0827 89.2199 40.0844 89.3649 40.086C89.7265 41.0857 90.0875 42.0857 90.4479 43.0858C90.5707 43.4262 90.6937 43.7666 90.8168 44.1069C90.9934 44.5952 91.1694 45.0836 91.3453 45.5721C91.4008 45.725 91.4562 45.8779 91.5133 46.0355C91.5895 46.2474 91.5895 46.2474 91.6671 46.4636C91.7122 46.5883 91.7572 46.7131 91.8036 46.8416C91.8998 47.1435 91.8998 47.1435 91.8998 47.4258C91.3421 47.4258 90.7844 47.4258 90.2099 47.4258C90.0917 47.082 89.9745 46.7379 89.8578 46.3936C89.8242 46.2962 89.7906 46.1987 89.756 46.0984C89.6138 45.677 89.5057 45.333 89.5057 44.8851C88.4833 44.8851 87.4608 44.8851 86.4074 44.8851C86.3609 45.118 86.3144 45.3509 86.2666 45.5908C86.1081 45.9158 85.9401 46.2362 85.7648 46.5524C85.6953 46.6789 85.6953 46.6789 85.6243 46.808C85.5106 47.0144 85.3958 47.2201 85.2807 47.4258C84.723 47.4258 84.1654 47.4258 83.5908 47.4258C84.3429 45.9099 85.1053 44.3996 85.8777 42.8941C86.0501 42.558 86.222 42.2217 86.3939 41.8854C86.5038 41.671 86.6138 41.4566 86.7237 41.2423C86.7749 41.142 86.8261 41.0418 86.8788 40.9385C87.3159 40.0884 87.3159 40.0884 87.8383 40.0723ZM88.0974 41.2152C87.7256 42.0537 87.3538 42.8921 86.9707 43.7559C87.6678 43.7559 88.365 43.7559 89.0832 43.7559C88.7763 42.4724 88.7763 42.4724 88.379 41.2152C88.2861 41.2152 88.1931 41.2152 88.0974 41.2152Z" fill="white"/>
<path d="M85.9849 45.0264C86.1243 45.0264 86.2637 45.0264 86.4074 45.0264C86.1977 45.5763 85.9506 46.0978 85.6856 46.6231C85.6097 46.7739 85.5338 46.9248 85.4557 47.0802C85.3691 47.2513 85.3691 47.2513 85.2807 47.4259C85.2342 47.3327 85.1878 47.2396 85.1399 47.1436C85.3842 46.4214 85.68 45.7247 85.9849 45.0264Z" fill="white"/>
<path d="M86.1257 43.6147C86.4045 43.6147 86.6834 43.6147 86.9707 43.6147C86.8739 43.9588 86.8739 43.9588 86.689 44.3205C86.3193 44.4352 86.3193 44.4352 85.9849 44.4616C86.0313 44.1822 86.0778 43.9027 86.1257 43.6147Z" fill="white"/>
<path d="M111.72 22.6649C112.484 23.4776 112.674 24.3647 112.646 25.4614C112.509 26.6195 111.938 27.6208 111.053 28.3709C110.644 28.6095 110.234 28.7883 109.785 28.9355C109.663 28.9767 109.663 28.9767 109.537 29.0188C109.053 29.1077 108.569 29.0969 108.078 29.0943C107.975 29.0948 107.873 29.0954 107.767 29.096C107.004 29.0945 107.004 29.0945 106.687 28.9355C106.598 28.6637 106.598 28.6637 106.529 28.3268C106.505 28.2167 106.482 28.1066 106.457 27.9932C106.405 27.6652 106.405 27.6652 106.405 27.1006C106.503 27.1055 106.6 27.1104 106.7 27.1155C107.708 27.1446 108.7 27.1184 109.504 26.4389C109.771 25.8196 109.846 25.2351 109.689 24.5776C109.501 24.2144 109.501 24.2144 108.94 23.9953C108.011 23.9487 107.081 23.9022 106.124 23.8542C106.031 27.2544 105.938 30.6547 105.842 34.158C104.913 34.158 103.983 34.158 103.026 34.158C103.043 33.8747 103.06 33.5914 103.077 33.2995C103.302 29.4945 103.449 25.687 103.589 21.8781C104.212 21.854 104.835 21.8314 105.458 21.81C105.669 21.8026 105.88 21.7948 106.091 21.7866C110.562 21.6136 110.562 21.6136 111.72 22.6649Z" fill="white"/>
<path d="M108.377 27.665C108.377 27.8513 108.377 28.0376 108.377 28.2296C108.517 28.2761 108.656 28.3227 108.8 28.3707C108.8 28.557 108.8 28.7433 108.8 28.9353C108.597 28.9468 108.395 28.955 108.192 28.9618C108.023 28.9691 108.023 28.9691 107.851 28.9767C107.532 28.9353 107.532 28.9353 107.28 28.7396C107.11 28.5119 107.11 28.5119 107.11 28.2296C107.017 28.2296 106.924 28.2296 106.828 28.2296C106.828 27.9967 106.828 27.7638 106.828 27.5238C107.392 27.2979 107.82 27.4825 108.377 27.665Z" fill="white"/>
<path d="M103.589 21.8779C105.03 21.8779 106.47 21.8779 107.955 21.8779C107.955 21.9245 107.955 21.9711 107.955 22.0191C107.836 22.0226 107.717 22.0262 107.595 22.0298C107.156 22.0432 106.717 22.0572 106.278 22.0716C106.087 22.0778 105.897 22.0836 105.707 22.0893C105.434 22.0974 105.161 22.1065 104.888 22.1156C104.723 22.1207 104.559 22.1259 104.389 22.1312C104.023 22.118 104.023 22.118 103.871 22.3014C103.86 22.5568 103.859 22.8127 103.862 23.0683C103.863 23.2271 103.864 23.3858 103.865 23.5494C103.869 23.8828 103.872 24.2162 103.876 24.5495C103.882 25.5043 103.851 26.4352 103.73 27.3827C103.683 27.3827 103.637 27.3827 103.589 27.3827C103.589 25.5661 103.589 23.7496 103.589 21.8779Z" fill="white"/>
<path d="M106.405 27.1006C107.056 27.1006 107.707 27.1006 108.377 27.1006C108.331 27.2403 108.284 27.3801 108.236 27.524C107.772 27.524 107.307 27.524 106.828 27.524C106.828 27.7569 106.828 27.9898 106.828 28.2298C106.921 28.2298 107.014 28.2298 107.11 28.2298C107.11 28.3229 107.11 28.4161 107.11 28.5121C107.249 28.5586 107.388 28.6052 107.532 28.6532C107.532 28.793 107.532 28.9327 107.532 29.0767C107.114 29.0068 107.114 29.0068 106.687 28.9355C106.639 28.7357 106.593 28.5357 106.546 28.3356C106.52 28.2243 106.494 28.1129 106.467 27.9982C106.405 27.6652 106.405 27.6652 106.405 27.1006Z" fill="white"/>
<path d="M103.166 32.0405C103.213 32.0405 103.259 32.0405 103.307 32.0405C103.354 32.2734 103.4 32.5063 103.448 32.7463C103.541 32.7463 103.634 32.7463 103.73 32.7463C104.025 33.2337 104.025 33.2337 103.959 33.6108C103.929 33.6981 103.9 33.7855 103.871 33.8755C103.871 33.9686 103.871 34.0618 103.871 34.1578C103.592 34.1578 103.313 34.1578 103.026 34.1578C103.072 33.4591 103.118 32.7604 103.166 32.0405Z" fill="white"/>
<path d="M109.504 21.8783C109.504 21.9248 109.504 21.9714 109.504 22.0194C109.084 22.0608 109.084 22.0608 108.665 22.1021C108.335 22.1502 108.335 22.1502 107.955 22.4429C107.567 22.5723 107.341 22.5994 106.942 22.5928C106.677 22.5885 106.677 22.5885 106.405 22.584C107.238 21.7496 108.41 21.6626 109.504 21.8783Z" fill="white"/>
<path d="M111.053 22.3018C111.658 22.5265 111.947 22.9218 112.32 23.4309C112.32 23.5707 112.32 23.7104 112.32 23.8544C111.977 23.7662 111.977 23.7662 111.616 23.5721C111.502 23.131 111.502 23.131 111.475 22.7252C111.336 22.7718 111.197 22.8184 111.053 22.8664C111.053 22.68 111.053 22.4937 111.053 22.3018Z" fill="white"/>
<path d="M109.926 21.8779C110.736 22.0014 110.736 22.0014 111.053 22.1602C111.053 22.3 111.053 22.4397 111.053 22.5837C110.943 22.5575 110.832 22.5313 110.718 22.5043C110.353 22.4059 110.353 22.4059 110.067 22.5837C109.928 22.5371 109.788 22.4905 109.645 22.4425C109.505 22.5124 109.505 22.5124 109.363 22.5837C109.409 22.4439 109.456 22.3042 109.504 22.1602C109.643 22.1602 109.783 22.1602 109.926 22.1602C109.926 22.0671 109.926 21.9739 109.926 21.8779Z" fill="white"/>
<path d="M106.546 23.5717C108.628 23.5457 108.628 23.5457 109.504 23.7129C109.504 23.8526 109.504 23.9924 109.504 24.1363C108.528 23.9966 107.552 23.8569 106.546 23.7129C106.546 23.6663 106.546 23.6197 106.546 23.5717Z" fill="white"/>
<path d="M110.067 23.7129C110.349 23.854 110.349 23.854 110.49 24.1363C110.426 24.1975 110.362 24.2586 110.296 24.3216C110.039 24.575 110.039 24.575 109.785 24.9832C109.692 24.7038 109.6 24.4243 109.504 24.1363C109.69 23.9966 109.876 23.8569 110.067 23.7129Z" fill="white"/>
<path d="M112.32 24.2778C112.413 24.3244 112.506 24.371 112.602 24.419C112.602 24.8848 112.602 25.3506 112.602 25.8305C112.463 25.9003 112.463 25.9003 112.32 25.9716C112.293 25.7159 112.267 25.46 112.241 25.2041C112.227 25.0617 112.212 24.9192 112.197 24.7724C112.191 24.6558 112.185 24.5391 112.18 24.419C112.226 24.3724 112.273 24.3258 112.32 24.2778Z" fill="white"/>
<path d="M105.983 23.854C106.029 23.854 106.076 23.854 106.124 23.854C106.124 24.1335 106.124 24.413 106.124 24.7009C105.938 24.6543 105.752 24.6077 105.561 24.5597C105.514 24.6529 105.468 24.7461 105.42 24.842C105.261 24.3127 105.261 24.3127 105.42 23.9952C105.699 24.065 105.699 24.065 105.983 24.1363C105.983 24.0431 105.983 23.95 105.983 23.854Z" fill="white"/>
<path d="M83.4499 40.0863C83.4499 40.459 83.4499 40.8316 83.4499 41.2155C83.28 41.209 83.1101 41.2024 82.935 41.1957C82.7076 41.1904 82.4803 41.1852 82.2529 41.1802C82.1414 41.1755 82.0299 41.1708 81.9151 41.1659C80.9656 41.1503 80.2442 41.3784 79.5243 42.0128C78.951 42.8946 78.9376 43.861 79.0842 44.8854C79.288 45.2729 79.288 45.2729 79.5066 45.5911C79.5066 45.6843 79.5066 45.7774 79.5066 45.8734C80.1086 46.118 80.6062 46.3151 81.2599 46.3107C81.3793 46.3102 81.4986 46.3097 81.6216 46.3093C81.7457 46.3081 81.8698 46.3069 81.9976 46.3057C82.1233 46.3051 82.249 46.3044 82.3786 46.3038C82.6888 46.3021 82.9989 46.2998 83.3091 46.2969C83.3151 46.6262 83.3149 46.9556 83.3091 47.2849C82.923 47.6719 81.952 47.587 81.4343 47.6025C80.2147 47.5891 79.0612 47.2676 78.1825 46.3796C77.3591 45.4467 77.3091 44.5263 77.3408 43.3372C77.4051 42.3487 77.8127 41.656 78.4856 40.9509C80.0509 39.9251 81.6318 39.7694 83.4499 40.0863Z" fill="white"/>
<path d="M78.8025 43.4741C78.849 43.4741 78.8954 43.4741 78.9433 43.4741C78.9486 43.5678 78.9539 43.6615 78.9593 43.7581C79.0139 44.4929 79.0918 44.9677 79.5066 45.5913C79.4602 45.7311 79.4137 45.8708 79.3658 46.0148C79.299 45.9449 79.2322 45.8751 79.1634 45.8031C78.9772 45.5751 78.9772 45.5751 78.8025 45.5913C78.8025 44.8927 78.8025 44.194 78.8025 43.4741Z" fill="white"/>
<path d="M83.1683 46.7202C83.0753 46.9531 82.9824 47.186 82.8866 47.4259C82.7472 47.4259 82.6078 47.4259 82.4641 47.4259C82.4177 47.193 82.3712 46.9601 82.3233 46.7202C82.8514 46.5614 82.8514 46.5614 83.1683 46.7202Z" fill="white"/>
<path d="M82.0416 47.1438C82.0881 47.2835 82.1345 47.4232 82.1824 47.5672C81.7177 47.5672 81.2529 47.5672 80.7741 47.5672C81.4079 47.0908 81.4079 47.0908 82.0416 47.1438Z" fill="white"/>
<path d="M82.605 46.2969C82.8374 46.2969 83.0697 46.2969 83.3091 46.2969C83.3091 46.6229 83.3091 46.949 83.3091 47.2849C83.1697 47.2849 83.0303 47.2849 82.8866 47.2849C82.9331 47.0986 82.9796 46.9123 83.0275 46.7203C82.8881 46.6737 82.7486 46.6272 82.605 46.5792C82.605 46.486 82.605 46.3929 82.605 46.2969Z" fill="white"/>
<path d="M111.616 40.0863C112.075 40.045 112.075 40.045 112.62 40.0599C112.89 40.0656 112.89 40.0656 113.166 40.0714C113.306 40.0763 113.445 40.0813 113.588 40.0863C113.635 40.2199 113.681 40.3534 113.73 40.491C113.907 40.9983 114.085 41.5055 114.264 42.0126C114.34 42.2299 114.416 42.4473 114.492 42.6646C114.935 43.9308 115.385 45.1933 115.868 46.4452C116.123 47.1136 116.123 47.1136 116.123 47.426C115.565 47.426 115.007 47.426 114.433 47.426C114.315 47.0822 114.198 46.7382 114.081 46.3939C114.047 46.2965 114.014 46.199 113.979 46.0986C113.837 45.6773 113.729 45.3333 113.729 44.8854C112.706 44.8854 111.684 44.8854 110.63 44.8854C110.584 45.1183 110.537 45.3512 110.49 45.5911C110.331 45.9161 110.163 46.2365 109.988 46.5527C109.918 46.6792 109.918 46.6792 109.847 46.8082C109.734 47.0146 109.619 47.2204 109.504 47.426C108.946 47.426 108.388 47.426 107.814 47.426C108.543 45.9556 109.282 44.4903 110.033 43.0305C110.193 42.7179 110.354 42.4052 110.514 42.0924C110.617 41.8918 110.72 41.6912 110.823 41.4906C110.87 41.398 110.918 41.3054 110.967 41.21C111.167 40.8201 111.373 40.452 111.616 40.0863ZM112.32 41.2155C111.949 42.0539 111.577 42.8923 111.194 43.7562C111.891 43.7562 112.588 43.7562 113.306 43.7562C113.132 42.8394 112.869 42.0541 112.461 41.2155C112.415 41.2155 112.368 41.2155 112.32 41.2155Z" fill="white"/>
<path d="M110.912 42.2036C111.132 42.4418 111.132 42.4418 111.335 42.7682C111.308 43.1475 111.308 43.1475 111.194 43.4739C111.054 43.5438 111.054 43.5438 110.912 43.6151C110.959 43.7083 111.005 43.8014 111.053 43.8974C111.053 44.0371 111.053 44.1769 111.053 44.3208C110.78 44.2679 110.78 44.2679 110.49 44.1797C110.443 44.0865 110.397 43.9934 110.349 43.8974C110.299 43.8042 110.25 43.7111 110.199 43.6151C110.067 43.3328 110.067 43.3328 110.067 43.0505C110.296 42.8095 110.531 42.5741 110.771 42.3448C110.818 42.2982 110.864 42.2516 110.912 42.2036Z" fill="white"/>
<path d="M115.419 45.7324C115.889 46.2464 115.979 46.7608 116.123 47.4262C115.751 47.4262 115.379 47.4262 114.996 47.4262C114.996 47.333 114.996 47.2399 114.996 47.1439C115.182 47.0973 115.368 47.0507 115.56 47.0028C115.513 46.5835 115.467 46.1643 115.419 45.7324Z" fill="white"/>
<path d="M108.095 46.8613C108.235 46.9079 108.374 46.9545 108.518 47.0025C108.657 47.0025 108.797 47.0025 108.94 47.0025C108.94 47.1422 108.94 47.282 108.94 47.4259C108.569 47.4259 108.197 47.4259 107.814 47.4259C107.907 47.2396 108 47.0533 108.095 46.8613Z" fill="white"/>
<path d="M111.616 40.0864C112.267 40.0864 112.918 40.0864 113.588 40.0864C113.588 40.2262 113.588 40.3659 113.588 40.5099C113.448 40.4633 113.309 40.4167 113.165 40.3687C112.899 40.3374 112.632 40.3114 112.364 40.2893C112.224 40.2775 112.084 40.2657 111.94 40.2535C111.78 40.2407 111.78 40.2407 111.616 40.2276C111.616 40.181 111.616 40.1344 111.616 40.0864Z" fill="white"/>
<path d="M110.771 41.6392C110.818 41.6392 110.864 41.6392 110.912 41.6392C110.97 42.1477 110.934 42.3144 110.63 42.7419C110.537 42.8438 110.445 42.9457 110.349 43.0506C110.256 43.0041 110.163 42.9575 110.067 42.9095C110.299 42.4903 110.532 42.0711 110.771 41.6392Z" fill="white"/>
<path d="M141.613 22.5835C141.613 23.3753 141.613 24.1672 141.613 24.983C142.357 24.983 143.101 24.983 143.867 24.983C143.867 25.5885 143.867 26.1941 143.867 26.8179C143.077 26.8179 142.287 26.8179 141.473 26.8179C141.466 27.5112 141.461 28.2043 141.457 28.8976C141.456 29.1334 141.454 29.3691 141.451 29.6049C141.448 29.944 141.446 30.2832 141.445 30.6223C141.444 30.7275 141.442 30.8326 141.441 30.941C141.435 31.68 141.435 31.68 141.754 32.3227C142.444 32.4989 143.031 32.4507 143.726 32.3227C143.602 33.8196 143.602 33.8196 143.303 34.2988C142.686 34.4826 142.05 34.4708 141.411 34.4752C141.307 34.4782 141.203 34.4811 141.096 34.4841C140.415 34.4889 139.939 34.4136 139.36 34.0165C138.736 33.3723 138.734 32.7792 138.74 31.926C138.744 31.7687 138.748 31.6114 138.753 31.4494C138.755 31.2877 138.757 31.1261 138.759 30.9596C138.782 29.5773 138.845 28.1972 138.938 26.8179C138.519 26.8179 138.101 26.8179 137.67 26.8179C137.717 26.2124 137.763 25.6069 137.811 24.983C138.276 24.983 138.74 24.983 139.219 24.983C139.219 24.3775 139.219 23.772 139.219 23.1481C140.909 22.5835 140.909 22.5835 141.613 22.5835Z" fill="white"/>
<path d="M141.613 22.5835C141.613 23.0493 141.613 23.5151 141.613 23.995C141.567 23.995 141.52 23.995 141.473 23.995C141.426 23.7621 141.38 23.5292 141.332 23.2892C140.96 23.3358 140.588 23.3824 140.205 23.4304C140.159 23.5701 140.112 23.7099 140.064 23.8538C139.925 23.947 139.785 24.0401 139.642 24.1361C139.472 24.4963 139.472 24.4963 139.36 24.8419C139.314 24.8419 139.267 24.8419 139.219 24.8419C139.219 24.2829 139.219 23.724 139.219 23.1481C140.829 22.5835 140.829 22.5835 141.613 22.5835Z" fill="white"/>
<path d="M143.726 24.9829C143.772 24.9829 143.819 24.9829 143.867 24.9829C143.867 25.5884 143.867 26.194 143.867 26.8178C143.82 26.8178 143.774 26.8178 143.726 26.8178C143.726 26.4918 143.726 26.1657 143.726 25.8298C143.607 25.8314 143.488 25.8331 143.366 25.8348C143.212 25.836 143.058 25.8373 142.899 25.8386C142.745 25.8403 142.591 25.8419 142.433 25.8436C142.036 25.8298 142.036 25.8298 141.754 25.6887C141.754 25.5955 141.754 25.5023 141.754 25.4064C142.358 25.4529 142.963 25.4995 143.585 25.5475C143.632 25.3612 143.678 25.1749 143.726 24.9829Z" fill="white"/>
<path d="M143.726 32.3228C143.679 32.742 143.633 33.1612 143.585 33.5931C143.399 33.5465 143.213 33.4999 143.022 33.4519C142.929 33.1259 142.836 32.7998 142.74 32.4639C143.091 32.3669 143.357 32.3228 143.726 32.3228Z" fill="white"/>
<path d="M138.938 26.6768C139.031 26.6768 139.124 26.6768 139.219 26.6768C139.599 27.4388 139.337 28.5452 139.219 29.3586C139.173 29.3586 139.126 29.3586 139.078 29.3586C138.962 28.4577 138.921 27.5847 138.938 26.6768Z" fill="white"/>
<path d="M143.585 25.8301C143.632 25.8301 143.678 25.8301 143.726 25.8301C143.726 26.1561 143.726 26.4822 143.726 26.8181C142.982 26.8181 142.239 26.8181 141.473 26.8181C141.473 26.6784 141.473 26.5386 141.473 26.3947C141.586 26.415 141.699 26.4354 141.816 26.4564C142.404 26.5495 142.993 26.615 143.585 26.677C143.585 26.3975 143.585 26.118 143.585 25.8301Z" fill="white"/>
<path d="M139.219 23.1479C139.359 23.1479 139.498 23.1479 139.642 23.1479C139.626 23.4039 139.608 23.6597 139.589 23.9154C139.579 24.0579 139.569 24.2004 139.559 24.3472C139.54 24.4638 139.521 24.5804 139.501 24.7006C139.362 24.7704 139.362 24.7704 139.219 24.8417C139.219 24.2828 139.219 23.7238 139.219 23.1479Z" fill="white"/>
<path d="M141.191 22.5835C141.33 22.5835 141.47 22.5835 141.613 22.5835C141.613 23.0493 141.613 23.5151 141.613 23.995C141.567 23.995 141.52 23.995 141.473 23.995C141.458 23.8844 141.444 23.7737 141.429 23.6598C141.363 23.2426 141.363 23.2426 140.909 23.0069C141.002 22.8672 141.095 22.7275 141.191 22.5835Z" fill="white"/>
<path d="M143.303 32.3228C143.443 32.3228 143.582 32.3228 143.726 32.3228C143.679 32.6022 143.633 32.8817 143.585 33.1696C143.492 33.1696 143.399 33.1696 143.303 33.1696C143.25 32.9359 143.203 32.7004 143.163 32.4639C143.209 32.4173 143.256 32.3707 143.303 32.3228Z" fill="white"/>
<path d="M86.7331 24.7982C86.8733 24.7995 87.0136 24.8008 87.1581 24.8021C89.7956 24.8464 89.7956 24.8464 90.6323 25.2658C90.5847 26.4816 90.5847 26.4816 90.5608 27.0591C90.5198 28.0525 90.4826 29.0458 90.4495 30.0395C90.429 30.6451 90.4069 31.2506 90.3846 31.8562C90.3738 32.1602 90.3636 32.4642 90.3541 32.7682C90.3404 33.2035 90.3243 33.6386 90.3078 34.0737C90.3042 34.2035 90.3007 34.3332 90.2971 34.4669C90.2505 35.5887 90.1094 36.6842 89.3296 37.5368C87.8308 38.8838 85.6074 38.6333 83.7316 38.5337C83.0133 38.4505 82.3173 38.2987 81.6191 38.1103C81.4873 37.6649 81.4634 37.2682 81.4695 36.8046C81.4707 36.6787 81.472 36.5528 81.4733 36.4231C81.475 36.3278 81.4766 36.2324 81.4783 36.1342C82.0306 36.2064 82.5641 36.2986 83.1066 36.4253C84.3058 36.6657 85.6757 36.8233 86.7617 36.1629C87.2817 35.7404 87.4622 35.23 87.534 34.5815C87.5442 34.1108 87.5423 33.6408 87.534 33.1701C87.4625 33.2279 87.391 33.2858 87.3173 33.3454C87.2204 33.4215 87.1234 33.4975 87.0235 33.5759C86.9288 33.6512 86.834 33.7265 86.7364 33.8041C85.7274 34.4569 84.4691 34.4435 83.3091 34.2993C82.3544 34.0252 81.5625 33.4709 81.0558 32.6055C80.6805 31.8138 80.5596 31.1044 80.5717 30.2324C80.573 30.1212 80.5744 30.0099 80.5758 29.8953C80.6216 28.3782 81.0716 27.3696 82.1329 26.2764C83.4493 25.0644 84.9806 24.7658 86.7331 24.7982ZM84.1541 27.5241C83.2595 28.4615 83.1081 29.2464 83.1331 30.5103C83.196 31.228 83.4257 31.6093 83.9516 32.085C84.6196 32.5485 85.1866 32.5472 85.9849 32.4643C86.7202 32.2427 87.1656 31.7666 87.534 31.1058C88.097 29.7657 87.989 28.2438 87.9565 26.8184C86.5273 26.639 85.3207 26.5675 84.1541 27.5241Z" fill="white"/>
<path d="M86.6451 24.8335C86.8158 24.8354 86.8158 24.8354 86.99 24.8373C87.1199 24.8398 87.1199 24.8398 87.2524 24.8423C87.2524 24.982 87.2524 25.1218 87.2524 25.2657C87.7172 25.2657 88.1819 25.2657 88.6607 25.2657C88.5213 25.3356 88.5213 25.3356 88.3791 25.4069C88.3791 25.6398 88.3791 25.8727 88.3791 26.1126C88.1932 26.1592 88.0073 26.2058 87.8157 26.2538C87.8622 26.0675 87.9087 25.8811 87.9566 25.6892C87.7707 25.8755 87.5848 26.0618 87.3932 26.2538C87.4862 26.3004 87.5791 26.3469 87.6749 26.3949C87.7214 26.4881 87.7679 26.5812 87.8157 26.6772C87.1651 26.6772 86.5144 26.6772 85.8441 26.6772C85.9835 26.6306 86.1229 26.5841 86.2666 26.5361C86.1736 26.3032 86.0807 26.0703 85.9849 25.8303C85.7525 25.8303 85.5202 25.8303 85.2808 25.8303C85.3952 25.4157 85.3952 25.4157 85.5624 24.9834C85.9683 24.8478 86.2241 24.8274 86.6451 24.8335Z" fill="white"/>
<path d="M83.5908 27.2417C83.8196 27.524 83.8196 27.524 84.0133 27.8063C83.7416 28.2873 83.4742 28.7578 83.1683 29.2178C83.0289 28.9383 82.8894 28.6588 82.7458 28.3709C82.8387 28.3709 82.9317 28.3709 83.0275 28.3709C82.981 28.1846 82.9345 27.9983 82.8866 27.8063C82.9796 27.8063 83.0725 27.8063 83.1683 27.8063C83.1683 27.7131 83.1683 27.62 83.1683 27.524C83.0753 27.4774 82.9824 27.4308 82.8866 27.3828C83.3091 27.2417 83.3091 27.2417 83.5908 27.2417Z" fill="white"/>
<path d="M88.3438 37.5103C88.6607 37.6867 88.6607 37.6867 88.8015 37.969C88.5227 38.0622 88.2438 38.1553 87.9565 38.2513C87.9565 38.1581 87.9565 38.065 87.9565 37.969C87.7242 38.0156 87.4918 38.0622 87.2524 38.1102C87.2524 37.9704 87.2524 37.8307 87.2524 37.6867C87.6791 37.4668 87.8719 37.3813 88.3438 37.5103Z" fill="white"/>
<path d="M89.9282 32.7466C89.9747 32.7466 90.0212 32.7466 90.069 32.7466C90.2233 33.9253 90.3334 35.106 90.069 36.2753C90.0226 36.2753 89.9761 36.2753 89.9282 36.2753C89.8246 35.0766 89.7458 33.942 89.9282 32.7466Z" fill="white"/>
<path d="M87.2524 24.8423C87.996 24.8889 88.7396 24.9354 89.5057 24.9834C89.5057 25.03 89.5057 25.0766 89.5057 25.1246C88.9883 25.245 88.5136 25.281 87.9829 25.2746C87.7768 25.2726 87.7768 25.2726 87.5665 25.2707C87.411 25.2682 87.411 25.2682 87.2524 25.2657C87.2524 25.126 87.2524 24.9863 87.2524 24.8423Z" fill="white"/>
<path d="M81.4783 36.1343C82.0495 36.2003 82.5297 36.2584 83.0274 36.5577C81.936 36.7165 81.936 36.7165 81.6191 36.5577C81.6191 36.8838 81.6191 37.2098 81.6191 37.5458C81.5726 37.5458 81.5262 37.5458 81.4783 37.5458C81.4783 37.08 81.4783 36.6142 81.4783 36.1343Z" fill="white"/>
<path d="M90.2098 25.4067C90.3028 25.4533 90.3957 25.4999 90.4915 25.5479C90.4915 26.2 90.4915 26.8521 90.4915 27.524C90.3037 27.1476 90.1159 26.7712 89.9282 26.3948C90.0211 26.3016 90.1141 26.2085 90.2098 26.1125C90.2333 25.7478 90.2333 25.7478 90.2098 25.4067Z" fill="white"/>
<path d="M85.9849 24.8425C85.8455 24.8891 85.706 24.9357 85.5624 24.9836C85.4633 25.2641 85.3693 25.5465 85.2807 25.8305C85.1413 25.9004 85.1413 25.9004 84.9991 25.9717C84.9991 25.7388 84.9991 25.5059 84.9991 25.2659C84.8132 25.1728 84.6273 25.0796 84.4357 24.9836C84.9616 24.8596 85.4452 24.8299 85.9849 24.8425Z" fill="white"/>
<path d="M86.2666 33.4521C86.4525 33.4987 86.6384 33.5453 86.8299 33.5933C86.4397 34.1311 85.8964 34.1675 85.2808 34.299C85.2808 34.1593 85.2808 34.0196 85.2808 33.8756C85.4855 33.8494 85.4855 33.8494 85.6945 33.8227C85.9079 33.779 85.9079 33.779 86.1258 33.7344C86.1722 33.6413 86.2187 33.5481 86.2666 33.4521Z" fill="white"/>
<path d="M81.0558 31.6177C81.1487 31.6643 81.2417 31.7108 81.3374 31.7588C81.3244 31.916 81.3244 31.916 81.311 32.0764C81.3418 32.5286 81.4645 32.6961 81.7599 33.0292C81.6205 33.0292 81.4811 33.0292 81.3374 33.0292C80.7741 32.0764 80.7741 32.0764 80.7741 31.7588C80.8671 31.7122 80.96 31.6657 81.0558 31.6177Z" fill="white"/>
<path d="M87.2524 35.5698C87.3932 35.9933 87.3932 35.9933 87.2524 36.4167C86.7954 36.739 86.3898 36.7239 85.8441 36.699C86.1298 36.5081 86.4174 36.32 86.7066 36.1344C87.1179 35.8958 87.1179 35.8958 87.2524 35.5698Z" fill="white"/>
<path d="M87.6749 30.2061C87.7213 30.3458 87.7678 30.4855 87.8157 30.6295C87.9086 30.6761 88.0016 30.7227 88.0974 30.7706C87.9829 31.1147 87.9829 31.1147 87.8157 31.4764C87.6763 31.523 87.5369 31.5695 87.3932 31.6175C87.2524 31.3352 87.2524 31.3352 87.331 31.0607C87.3719 30.9591 87.4127 30.8576 87.4548 30.753C87.4953 30.6507 87.5358 30.5485 87.5775 30.4431C87.6096 30.3649 87.6418 30.2867 87.6749 30.2061Z" fill="white"/>
<path d="M84.3301 33.9375C84.4819 33.9519 84.6337 33.9663 84.79 33.9811C84.9055 33.993 85.0209 34.0048 85.1399 34.017C85.1399 34.0637 85.1399 34.1104 85.1399 34.1584C84.8438 34.1898 84.5474 34.2188 84.2509 34.2468C84.0859 34.2632 83.9209 34.2796 83.7508 34.2965C83.3091 34.2999 83.3091 34.2999 82.8866 34.017C83.3865 33.8526 83.8102 33.8864 84.3301 33.9375Z" fill="white"/>
<path d="M83.1683 30.9116C83.3077 31.1212 83.3077 31.1212 83.4499 31.3351C83.72 31.6818 83.9845 32.012 84.2949 32.3231C84.1555 32.3697 84.0161 32.4163 83.8724 32.4643C83.826 32.3711 83.7795 32.2779 83.7316 32.182C83.5922 32.1354 83.4528 32.0888 83.3091 32.0408C83.2626 31.6682 83.2162 31.2955 83.1683 30.9116Z" fill="white"/>
<path d="M81.0558 27.665C81.3374 27.8062 81.3374 27.8062 81.4431 28.0708C81.4783 28.3708 81.4783 28.3708 81.1966 28.7942C81.0572 28.7942 80.9178 28.7942 80.7741 28.7942C80.8477 28.4043 80.9302 28.0425 81.0558 27.665Z" fill="white"/>
<path d="M81.6191 33.1699C81.9444 33.1699 82.2697 33.1699 82.6049 33.1699C82.6049 33.4028 82.6049 33.6357 82.6049 33.8757C82.0904 33.6993 81.9316 33.6398 81.6191 33.1699Z" fill="white"/>
<path d="M85.5624 26.2539C85.7018 26.3005 85.8413 26.3471 85.9849 26.3951C85.9384 26.4882 85.892 26.5814 85.8441 26.6774C85.9835 26.7239 86.1229 26.7705 86.2666 26.8185C85.9413 26.8185 85.6159 26.8185 85.2808 26.8185C85.2808 26.6788 85.2808 26.539 85.2808 26.3951C85.3737 26.3485 85.4667 26.3019 85.5624 26.2539Z" fill="white"/>
<path d="M83.1683 37.828C83.5379 37.8015 83.5379 37.8015 83.8724 37.828C83.8259 38.0143 83.7795 38.2006 83.7316 38.3925C83.3133 38.3227 83.3133 38.3227 82.8866 38.2514C82.9795 38.1117 83.0725 37.9719 83.1683 37.828Z" fill="white"/>
<path d="M90.2098 27.5239C90.3028 27.5239 90.3957 27.5239 90.4915 27.5239C90.4915 27.9431 90.4915 28.3623 90.4915 28.7943C90.445 28.7943 90.3985 28.7943 90.3507 28.7943C90.3507 28.5148 90.3507 28.2353 90.3507 27.9474C90.3042 28.0405 90.2577 28.1337 90.2098 28.2297C90.1169 28.2297 90.0239 28.2297 89.9282 28.2297C90.0514 27.6827 90.0514 27.6827 90.2098 27.5239Z" fill="white"/>
<path d="M60.9168 21.6927C61.0483 21.6923 61.1797 21.6918 61.3151 21.6913C62.1607 21.6978 62.9145 21.808 63.7335 22.0191C63.8032 23.0671 63.8032 23.0671 63.8743 24.1363C62.8885 23.9952 62.8885 23.9952 62.6013 23.918C61.7551 23.722 60.7992 23.7608 59.975 24.0128C59.5483 24.3596 59.4423 24.5793 59.3677 25.1244C59.6397 25.8373 60.0502 26.2496 60.6352 26.7123C60.7996 26.8476 60.9639 26.983 61.1281 27.1187C61.2105 27.1862 61.2929 27.2537 61.3778 27.3233C63.9046 29.4081 63.9046 29.4081 64.0437 30.7676C64.0632 31.6855 63.9754 32.4564 63.3484 33.1627C61.9857 34.4252 60.4857 34.5212 58.7049 34.4619C56.5704 34.3184 56.5704 34.3184 56.1286 33.8756C56.0953 33.519 56.0692 33.1655 56.0493 32.8081C56.0433 32.7078 56.0372 32.6075 56.0309 32.5041C56.0159 32.2555 56.0018 32.0069 55.9877 31.7584C56.5107 31.8361 56.9866 31.9427 57.4841 32.12C58.4687 32.4227 59.4698 32.4983 60.4415 32.1289C60.783 31.9098 60.783 31.9098 61.0577 31.6172C61.1451 31.1304 61.1555 30.7889 60.8915 30.3579C60.3174 29.6696 59.6311 29.1302 58.9342 28.5726C58.4961 28.2075 58.0836 27.8272 57.6777 27.4269C57.4904 27.2426 57.4904 27.2426 57.2992 27.0547C56.5744 26.2141 56.4732 25.5178 56.5026 24.4363C56.5942 23.6024 56.9642 23.1223 57.5633 22.5484C58.5731 21.7585 59.6732 21.6712 60.9168 21.6927Z" fill="white"/>
<path d="M61.0577 27.1006C61.7663 27.7072 62.4698 28.3193 63.1701 28.9355C63.0772 29.0287 62.9842 29.1218 62.8885 29.2178C62.8885 29.1247 62.8885 29.0315 62.8885 28.9355C62.4994 28.8512 62.1617 28.7944 61.7618 28.7944C61.7153 28.7478 61.6689 28.7012 61.621 28.6532C61.5937 28.74 61.5665 28.8268 61.5385 28.9162C61.5018 29.0303 61.4651 29.1444 61.4273 29.2619C61.3734 29.4314 61.3734 29.4314 61.3184 29.6043C61.1985 29.9236 61.1985 29.9236 60.9168 30.347C60.6204 30.0736 60.3241 29.8001 60.0278 29.5266C59.944 29.4493 59.8603 29.3721 59.7739 29.2925C59.6927 29.2175 59.6115 29.1424 59.5278 29.0651C59.4533 28.9963 59.3788 28.9276 59.302 28.8568C59.0847 28.652 58.8733 28.4423 58.6635 28.2298C59.3325 28.3533 59.3325 28.3533 59.6493 28.5121C59.9414 28.4771 59.9414 28.4771 60.2127 28.3709C60.2591 28.2778 60.3056 28.1846 60.3535 28.0886C60.585 27.9868 60.8197 27.8919 61.0577 27.8063C61.0577 27.5734 61.0577 27.3405 61.0577 27.1006Z" fill="white"/>
<path d="M61.0929 21.9132C61.2846 21.9656 61.2846 21.9656 61.4802 22.019C61.4802 22.1122 61.4802 22.2054 61.4802 22.3013C61.5353 22.2322 61.5905 22.1631 61.6474 22.0918C61.9832 21.8104 62.1748 21.8297 62.6068 21.8426C62.7288 21.8448 62.8508 21.847 62.9765 21.8492C63.311 21.8779 63.311 21.8779 63.7335 22.019C63.7799 22.7177 63.8264 23.4164 63.8743 24.1363C62.7652 23.9775 62.7652 23.9775 62.3251 23.7128C62.466 23.5717 62.466 23.5717 62.8973 23.5628C63.1021 23.5672 63.1021 23.5672 63.311 23.5717C63.311 23.6648 63.311 23.758 63.311 23.854C63.4039 23.854 63.4969 23.854 63.5926 23.854C63.5229 23.1553 63.5229 23.1553 63.4518 22.4425C63.3589 22.4425 63.2659 22.4425 63.1701 22.4425C63.1701 22.3493 63.1701 22.2562 63.1701 22.1602C62.9871 22.1777 62.8042 22.1951 62.6156 22.2131C62.5127 22.2229 62.4097 22.2328 62.3037 22.2429C62.2178 22.2622 62.132 22.2815 62.0435 22.3013C61.997 22.3945 61.9505 22.4876 61.9027 22.5836C61.3753 22.9642 60.8355 22.8867 60.2127 22.8659C60.1662 22.7262 60.1197 22.5865 60.0718 22.4425C60.5225 21.8692 60.5225 21.8692 61.0929 21.9132Z" fill="white"/>
<path d="M55.9877 31.7583C56.406 31.8282 56.406 31.8282 56.8327 31.8994C56.8792 32.0858 56.9257 32.2721 56.9736 32.464C56.7412 32.464 56.5088 32.464 56.2694 32.464C56.2694 32.5572 56.2694 32.6504 56.2694 32.7463C56.4088 32.6998 56.5482 32.6532 56.6919 32.6052C56.6919 32.8875 56.6919 33.1698 56.6919 33.4521C56.7384 33.5452 56.7848 33.6384 56.8327 33.7344C56.9721 33.781 57.1116 33.8275 57.2552 33.8755C57.2552 33.9687 57.2552 34.0618 57.2552 34.1578C56.287 34.0343 56.287 34.0343 56.1286 33.8755C56.0953 33.519 56.0692 33.1654 56.0493 32.8081C56.0433 32.7077 56.0372 32.6074 56.0309 32.504C56.0159 32.2555 56.0018 32.0069 55.9877 31.7583Z" fill="white"/>
<path d="M63.5927 22.019C63.6392 22.019 63.6856 22.019 63.7335 22.019C63.78 22.7177 63.8265 23.4164 63.8743 24.1363C62.7653 23.9775 62.7653 23.9775 62.3252 23.7128C62.466 23.5717 62.466 23.5717 62.8973 23.5629C63.1021 23.5672 63.1021 23.5672 63.311 23.5717C63.311 23.6648 63.311 23.758 63.311 23.854C63.404 23.854 63.4969 23.854 63.5927 23.854C63.5927 23.2484 63.5927 22.6429 63.5927 22.019Z" fill="white"/>
<path d="M59.3677 21.7368C60.3901 21.7368 61.4126 21.7368 62.466 21.7368C62.2801 21.7834 62.0942 21.83 61.9026 21.878C61.8562 22.0177 61.8097 22.1574 61.7618 22.3014C61.6689 22.3014 61.5759 22.3014 61.4802 22.3014C61.4802 22.2083 61.4802 22.1151 61.4802 22.0191C61.3749 22.0224 61.2696 22.0257 61.1611 22.029C61.0224 22.0316 60.8837 22.0341 60.7408 22.0368C60.6035 22.04 60.4663 22.0433 60.3249 22.0467C59.931 22.0191 59.931 22.0191 59.3677 21.7368Z" fill="white"/>
<path d="M61.9027 27.9473C62.4267 28.2741 62.8339 28.5522 63.1702 29.0765C63.0307 29.1463 63.0307 29.1463 62.8885 29.2176C62.8885 29.1244 62.8885 29.0313 62.8885 28.9353C62.4994 28.851 62.1618 28.7942 61.7618 28.7942C61.8083 28.5147 61.8548 28.2352 61.9027 27.9473Z" fill="white"/>
<path d="M56.2694 32.8877C56.4814 33.1649 56.6766 33.4216 56.8327 33.7346C56.9721 33.7812 57.1116 33.8277 57.2552 33.8757C57.2552 33.9689 57.2552 34.062 57.2552 34.158C56.287 34.0345 56.287 34.0345 56.1286 33.8757C56.111 33.4523 56.111 33.4523 56.1286 33.0288C56.175 32.9823 56.2215 32.9357 56.2694 32.8877Z" fill="white"/>
<path d="M62.0435 21.8782C62.2488 21.8705 62.4542 21.8651 62.6597 21.8605C62.774 21.8572 62.8884 21.854 63.0062 21.8506C63.311 21.8782 63.311 21.8782 63.5927 22.1605C63.5462 22.2536 63.4997 22.3468 63.4518 22.4427C63.3589 22.4427 63.2659 22.4427 63.1702 22.4427C63.1702 22.3496 63.1702 22.2564 63.1702 22.1605C62.7984 22.207 62.4266 22.2536 62.0435 22.3016C62.0435 22.1619 62.0435 22.0221 62.0435 21.8782Z" fill="white"/>
<path d="M57.6777 22.4424C57.7557 22.7353 57.8186 22.9849 57.8186 23.2893C57.5397 23.3824 57.2609 23.4756 56.9736 23.5716C57.0499 23.0358 57.2836 22.7992 57.6777 22.4424Z" fill="white"/>
<path d="M58.6635 28.2295C59.2016 28.3044 59.5172 28.4408 59.931 28.7941C59.8845 28.9338 59.8381 29.0736 59.7902 29.2175C59.602 29.0799 59.4143 28.9415 59.2268 28.8029C59.1223 28.7259 59.0177 28.649 58.91 28.5697C58.8286 28.504 58.7473 28.4383 58.6635 28.3706C58.6635 28.3241 58.6635 28.2775 58.6635 28.2295Z" fill="white"/>
<path d="M56.9736 26.3945C57.2552 26.5357 57.5369 26.6768 57.8186 26.818C57.7721 27.0043 57.7256 27.1906 57.6777 27.3826C57.4371 27.1534 57.2025 26.9177 56.9736 26.6768C56.9736 26.5837 56.9736 26.4905 56.9736 26.3945Z" fill="white"/>
<path d="M98.8347 25.4741C99.6111 26.0983 100.031 26.7882 100.315 27.7357C100.38 28.3885 100.418 29.0116 100.209 29.6412C98.0246 29.6412 95.8403 29.6412 93.5898 29.6412C93.87 31.1598 93.87 31.1598 94.7165 32.1819C96.0536 32.8507 97.2509 32.6018 98.6493 32.2745C99.0823 32.1819 99.0823 32.1819 99.5048 32.1819C99.4118 32.834 99.3189 33.4861 99.2231 34.158C97.2898 34.6139 94.7945 34.8337 92.9951 33.8448C92.0847 33.2308 91.5174 32.3941 91.1429 31.3703C90.7754 29.4642 91.1921 27.8763 92.1815 26.2537C92.2745 26.2537 92.3674 26.2537 92.4632 26.2537C92.5096 26.1139 92.5561 25.9742 92.604 25.8302C92.9676 25.6086 92.9676 25.6086 93.4226 25.3892C93.6462 25.2794 93.6462 25.2794 93.8742 25.1675C95.3222 24.5322 97.4992 24.5926 98.8347 25.4741ZM94.0915 27.374C93.8329 27.8339 93.8329 27.8339 93.7307 28.5121C95.0784 28.5121 96.4262 28.5121 97.8148 28.5121C97.8247 27.4541 97.8247 27.4541 97.2515 26.6771C96.1294 26.0084 94.876 26.4266 94.0915 27.374Z" fill="white"/>
<path d="M96.5473 24.8423C97.7521 24.8982 98.6284 25.1756 99.4784 26.0597C100.234 26.9903 100.432 28.0431 100.35 29.2179C100.303 29.3576 100.257 29.4974 100.209 29.6413C98.0246 29.6413 95.8403 29.6413 93.5898 29.6413C93.5898 29.5947 93.5898 29.5482 93.5898 29.5002C94.8447 29.4536 96.0995 29.407 97.3923 29.359C97.4388 29.2659 97.4853 29.1727 97.5331 29.0767C97.7655 29.0767 97.9979 29.0767 98.2373 29.0767C98.1676 28.8671 98.1676 28.8671 98.0965 28.6533C98.0035 28.6067 97.9106 28.5601 97.8148 28.5121C97.7455 28.2403 97.7455 28.2403 97.6916 27.9034C97.5327 27.1134 97.2069 26.8357 96.5473 26.3949C96.5938 26.3483 96.6403 26.3018 96.6881 26.2538C96.2699 26.2072 95.8516 26.1606 95.4207 26.1126C95.6956 25.8371 95.9181 25.7106 96.2656 25.548C96.1262 25.4549 95.9868 25.3617 95.8432 25.2657C96.0291 25.1726 96.2149 25.0794 96.4065 24.9834C96.4065 25.0766 96.4065 25.1697 96.4065 25.2657C96.4994 25.3123 96.5924 25.3589 96.6881 25.4069C96.6417 25.5 96.5952 25.5932 96.5473 25.6892C96.6403 25.6892 96.7332 25.6892 96.829 25.6892C96.8754 25.4563 96.9219 25.2234 96.9698 24.9834C96.8304 24.9369 96.691 24.8903 96.5473 24.8423Z" fill="white"/>
<path d="M93.8715 28.5122C95.2192 28.5122 96.567 28.5122 97.9556 28.5122C97.4283 28.7765 97.2725 28.8292 96.7211 28.8221C96.5959 28.8212 96.4706 28.8203 96.3415 28.8193C96.2119 28.8169 96.0823 28.8146 95.9487 28.8121C95.8169 28.8109 95.6852 28.8096 95.5494 28.8083C95.2247 28.805 94.9002 28.8003 94.5756 28.7945C94.5292 28.8877 94.4827 28.9808 94.4348 29.0768C94.1619 29.1738 94.1619 29.1738 93.8715 29.2179C93.7785 29.1714 93.6856 29.1248 93.5898 29.0768C93.5898 29.17 93.5898 29.2631 93.5898 29.3591C93.6977 29.3223 93.6977 29.3223 93.8077 29.2847C94.2757 29.1943 94.6999 29.2401 95.1742 29.2797C95.441 29.3013 95.441 29.3013 95.7133 29.3233C95.8491 29.3351 95.9849 29.3469 96.1248 29.3591C96.1248 29.4057 96.1248 29.4523 96.1248 29.5002C95.2882 29.5002 94.4517 29.5002 93.5898 29.5002C93.5898 29.7797 93.5898 30.0592 93.5898 30.3471C93.3082 29.9237 93.3082 29.9237 93.3082 29.3591C93.2152 29.3591 93.1223 29.3591 93.0265 29.3591C93.0265 29.1728 93.0265 28.9865 93.0265 28.7945C93.375 28.8644 93.375 28.8644 93.7306 28.9357C93.7771 28.7959 93.8236 28.6562 93.8715 28.5122Z" fill="white"/>
<path d="M95.4206 24.8424C95.5978 24.8395 95.775 24.8366 95.9575 24.8336C96.0572 24.8319 96.1569 24.8303 96.2595 24.8286C96.5473 24.8424 96.5473 24.8424 96.9697 24.9835C96.9697 25.0767 96.9697 25.1699 96.9697 25.2658C97.0627 25.3124 97.1556 25.359 97.2514 25.407C97.112 25.407 96.9726 25.407 96.8289 25.407C96.8289 25.5001 96.8289 25.5933 96.8289 25.6893C96.736 25.6893 96.643 25.6893 96.5473 25.6893C96.4543 25.503 96.3614 25.3167 96.2656 25.1247C96.1262 25.1946 96.1262 25.1946 95.9839 25.2658C96.1234 25.359 96.2628 25.4522 96.4064 25.5481C96.0579 25.7577 96.0579 25.7577 95.7023 25.9716C95.8407 26.1418 95.8407 26.1418 96.1033 26.1265C96.3921 26.1219 96.6809 26.1173 96.9697 26.1127C96.9233 26.2059 96.8768 26.299 96.8289 26.395C96.2712 26.395 95.7135 26.395 95.1389 26.395C95.1389 26.3019 95.1389 26.2087 95.1389 26.1127C94.7207 26.0429 94.7207 26.0429 94.2939 25.9716C94.2939 25.925 94.2939 25.8784 94.2939 25.8304C94.5728 25.7839 94.8516 25.7373 95.1389 25.6893C95.2319 25.4098 95.3248 25.1303 95.4206 24.8424Z" fill="white"/>
<path d="M99.5047 32.1821C99.4118 32.8342 99.3188 33.4863 99.2231 34.1582C98.5957 34.2281 98.5957 34.2281 97.9556 34.2994C97.9091 34.2062 97.8626 34.113 97.8148 34.0171C98.4422 33.9472 98.4422 33.9472 99.0822 33.8759C99.0177 33.3862 98.9567 32.9339 98.8006 32.4644C98.7076 32.4178 98.6147 32.3713 98.5189 32.3233C98.8697 32.2263 99.1356 32.1821 99.5047 32.1821Z" fill="white"/>
<path d="M91.4773 27.5239C91.5703 27.5705 91.6632 27.6171 91.759 27.6651C91.759 28.1774 91.759 28.6898 91.759 29.2177C91.6196 29.2643 91.4802 29.3109 91.3365 29.3589C91.29 29.8246 91.2436 30.2904 91.1957 30.7703C91.1492 30.7703 91.1027 30.7703 91.0548 30.7703C91.0056 29.6051 91.0627 28.6197 91.4773 27.5239Z" fill="white"/>
<path d="M97.8148 26.1123C98.1052 26.1741 98.1052 26.1741 98.3781 26.2535C98.5279 26.7048 98.5141 26.9448 98.3341 27.3826C98.2969 27.4758 98.2597 27.569 98.2213 27.6649C98.0946 27.9513 97.9546 28.2316 97.8148 28.5118C97.7218 28.046 97.6289 27.5802 97.5331 27.1003C97.6261 27.1003 97.719 27.1003 97.8148 27.1003C97.7886 26.9635 97.7625 26.8267 97.7356 26.6857C97.7152 26.5431 97.6949 26.4004 97.6739 26.2535C97.7204 26.2069 97.7669 26.1603 97.8148 26.1123Z" fill="white"/>
<path d="M96.5473 24.8423C97.441 24.8838 98.1898 25.0388 98.9414 25.548C98.9879 25.6412 99.0344 25.7343 99.0822 25.8303C98.664 25.7837 98.2457 25.7372 97.8148 25.6892C97.8148 25.5494 97.8148 25.4097 97.8148 25.2657C97.6753 25.4055 97.5359 25.5452 97.3923 25.6892C97.181 25.4951 97.181 25.4951 96.9698 25.2657C96.9698 25.1726 96.9698 25.0794 96.9698 24.9834C96.8303 24.9369 96.6909 24.8903 96.5473 24.8423Z" fill="white"/>
<path d="M94.2939 25.9713C94.69 25.936 94.69 25.936 95.1389 25.9713C95.403 26.2536 95.403 26.2536 95.5614 26.5359C95.1896 26.6756 94.8178 26.8154 94.4348 26.9593C94.3883 26.6333 94.3418 26.3072 94.2939 25.9713Z" fill="white"/>
<path d="M93.5898 33.4521C94.0123 33.5933 94.0123 33.5933 94.0123 33.5933L93.5898 33.4521ZM92.8857 33.5933C93.1181 33.5933 93.3504 33.5933 93.5898 33.5933C93.5898 33.6865 93.5898 33.7796 93.5898 33.8756C93.7293 33.8756 93.8687 33.8756 94.0123 33.8756C94.0123 33.9688 94.0123 34.0619 94.0123 34.1579C93.493 34.0876 93.223 34.0025 92.8857 33.5933Z" fill="white"/>
<path d="M97.5331 27.1006C97.8817 27.1705 97.8817 27.1705 98.2373 27.2417C98.1443 27.6609 98.0514 28.0802 97.9556 28.5121C97.9091 28.5121 97.8627 28.5121 97.8148 28.5121C97.7218 28.0463 97.6289 27.5805 97.5331 27.1006Z" fill="white"/>
<path d="M91.4774 31.8994C91.8999 32.0406 91.8999 32.0406 92.1815 32.464C92.1287 32.7728 92.1287 32.7728 92.0407 33.0286C91.4774 32.217 91.4774 32.217 91.4774 31.8994Z" fill="white"/>
<path d="M93.449 30.4883C93.5419 30.4883 93.6349 30.4883 93.7306 30.4883C93.8236 30.8609 93.9165 31.2335 94.0123 31.6175C93.8729 31.5709 93.7335 31.5243 93.5898 31.4763C93.5433 31.1503 93.4969 30.8242 93.449 30.4883Z" fill="white"/>
<path d="M97.2514 25.9712C97.3444 26.0178 97.4373 26.0643 97.5331 26.1123C97.4401 26.2987 97.3472 26.485 97.2514 26.6769C97.0191 26.6304 96.7867 26.5838 96.5473 26.5358C96.7796 26.3495 97.012 26.1632 97.2514 25.9712Z" fill="white"/>
<path d="M120.964 25.795C121.819 26.4938 122.329 27.4099 122.46 28.5121C122.591 30.18 122.368 31.5994 121.29 32.9185C120.244 34.025 119.132 34.4422 117.628 34.4898C116.642 34.5004 115.756 34.4595 114.855 34.0168C114.768 33.9775 114.681 33.9382 114.591 33.8978C113.47 33.3347 112.867 32.3519 112.461 31.1939C112.127 29.8257 112.299 28.3828 112.946 27.1315C113.684 25.9916 114.665 25.253 115.983 24.9089C117.771 24.6262 119.435 24.7541 120.964 25.795ZM115.736 27.4093C114.927 28.4222 114.857 29.5119 114.996 30.7704C115.176 31.415 115.445 31.7957 115.938 32.2437C116.718 32.6124 117.438 32.7198 118.271 32.4554C118.978 32.1445 119.366 31.6707 119.66 30.9496C119.801 30.4271 119.827 29.9706 119.829 29.4295C119.831 29.2505 119.833 29.0715 119.836 28.887C119.761 28.1328 119.506 27.6819 119.001 27.127C117.955 26.3215 116.694 26.6456 115.736 27.4093Z" fill="white"/>
<path d="M118.376 24.9834C118.609 24.9834 118.841 24.9834 119.08 24.9834C119.127 25.3095 119.173 25.6355 119.221 25.9714C118.731 26.2524 118.377 26.2537 117.813 26.2537C117.813 26.3469 117.813 26.44 117.813 26.536C117.952 26.5826 118.092 26.6292 118.235 26.6772C118.007 26.6848 117.778 26.6903 117.549 26.6948C117.421 26.6981 117.294 26.7014 117.163 26.7047C116.827 26.6772 116.827 26.6772 116.545 26.3949C116.592 26.3017 116.638 26.2086 116.686 26.1126C116.826 26.1126 116.965 26.1126 117.109 26.1126C117.109 26.2523 117.109 26.3921 117.109 26.536C117.248 26.4429 117.388 26.3497 117.531 26.2537C117.531 26.114 117.531 25.9743 117.531 25.8303C117.438 25.7837 117.345 25.7371 117.25 25.6891C117.25 25.596 117.25 25.5028 117.25 25.4068C117.646 25.3186 117.646 25.3186 118.094 25.2657C118.234 25.3589 118.373 25.452 118.517 25.548C118.471 25.3617 118.424 25.1754 118.376 24.9834Z" fill="white"/>
<path d="M119.221 31.4761C119.454 31.6624 119.686 31.8487 119.925 32.0407C119.786 32.0407 119.646 32.0407 119.503 32.0407C119.503 32.1338 119.503 32.227 119.503 32.323C119.41 32.323 119.317 32.323 119.221 32.323C119.175 32.4627 119.128 32.6024 119.08 32.7464C119.034 32.6533 118.987 32.5601 118.94 32.4641C118.8 32.371 118.661 32.2778 118.517 32.1818C118.749 31.9489 118.982 31.716 119.221 31.4761Z" fill="white"/>
<path d="M113.447 32.8877C114.074 33.0274 114.074 33.0274 114.715 33.17C114.715 33.3563 114.715 33.5426 114.715 33.7346C114.093 33.7346 113.9 33.4424 113.447 33.0288C113.447 32.9823 113.447 32.9357 113.447 32.8877Z" fill="white"/>
<path d="M116.686 26.1128C116.826 26.1128 116.965 26.1128 117.109 26.1128C117.109 26.2525 117.109 26.3923 117.109 26.5362C117.341 26.4431 117.573 26.3499 117.813 26.2539C117.813 26.3471 117.813 26.4403 117.813 26.5362C117.952 26.5828 118.092 26.6294 118.235 26.6774C118.007 26.685 117.778 26.6905 117.549 26.695C117.421 26.6983 117.294 26.7016 117.163 26.705C116.827 26.6774 116.827 26.6774 116.545 26.3951C116.592 26.3019 116.638 26.2088 116.686 26.1128Z" fill="white"/>
<path d="M119.08 24.9834C119.406 25.0766 119.731 25.1697 120.066 25.2657C120.066 25.3589 120.066 25.452 120.066 25.548C119.661 25.6362 119.661 25.6362 119.221 25.6891C119.128 25.596 119.035 25.5028 118.94 25.4068C118.986 25.2671 119.032 25.1274 119.08 24.9834Z" fill="white"/>
<path d="M118.235 33.8759C117.967 34.1447 117.766 34.2902 117.384 34.3275C117.104 34.326 116.825 34.3134 116.545 34.2994C116.592 34.2062 116.638 34.1131 116.686 34.0171C117.207 33.8983 117.702 33.8602 118.235 33.8759Z" fill="white"/>
<path d="M117.813 24.8423C118.138 24.8423 118.463 24.8423 118.799 24.8423C118.659 24.8889 118.52 24.9354 118.376 24.9834C118.423 25.1697 118.469 25.3561 118.517 25.548C118.331 25.5014 118.145 25.4549 117.954 25.4069C117.907 25.2206 117.861 25.0342 117.813 24.8423Z" fill="white"/>
<path d="M115.137 33.311C115.23 33.3576 115.323 33.4042 115.419 33.4522C115.419 33.6385 115.419 33.8248 115.419 34.0168C115.075 33.9638 115.075 33.9638 114.715 33.8756C114.668 33.7825 114.622 33.6893 114.574 33.5933C114.838 33.4434 114.838 33.4434 115.137 33.311Z" fill="white"/>
<path d="M121.193 31.8994C121.472 31.9693 121.472 31.9693 121.756 32.0406C121.663 32.2735 121.57 32.5064 121.474 32.7463C121.335 32.7463 121.196 32.7463 121.052 32.7463C121.098 32.4668 121.145 32.1874 121.193 31.8994Z" fill="white"/>
<path d="M114.996 25.2656C115.322 25.3803 115.322 25.3803 115.56 25.5479C114.936 25.8432 114.936 25.8432 114.53 25.7773C114.451 25.7482 114.373 25.7191 114.292 25.6891C114.609 25.4597 114.609 25.4597 114.996 25.2656Z" fill="white"/>
<path d="M135.943 25.4259C136.426 25.7911 136.647 26.107 136.825 26.6769C136.859 27.0791 136.859 27.0791 136.858 27.5222C136.857 27.6874 136.857 27.8527 136.857 28.023C136.855 28.1989 136.853 28.3748 136.852 28.556C136.851 28.7363 136.85 28.9167 136.849 29.1025C136.835 30.7895 136.771 32.4732 136.684 34.1578C135.801 34.1578 134.918 34.1578 134.009 34.1578C134.024 33.7515 134.039 33.3452 134.054 32.9266C134.067 32.5309 134.08 32.1353 134.092 31.7396C134.101 31.4656 134.11 31.1917 134.121 30.9178C134.136 30.5229 134.148 30.1281 134.16 29.7331C134.165 29.6116 134.17 29.4902 134.176 29.365C134.195 28.5907 134.107 28.0634 133.727 27.3827C133.064 26.9574 132.548 26.8945 131.775 27.021C131.075 27.2054 130.723 27.531 130.312 28.1149C129.534 29.8744 129.717 32.2851 129.643 34.1578C128.76 34.1578 127.877 34.1578 126.967 34.1578C127.096 31.099 127.243 28.0411 127.389 24.9832C128.272 24.9832 129.155 24.9832 130.065 24.9832C130.065 25.3558 130.065 25.7284 130.065 26.1123C130.122 26.0561 130.178 25.9999 130.236 25.942C131.705 24.5705 134.235 24.3041 135.943 25.4259Z" fill="white"/>
<path d="M129.924 24.9829C129.971 24.9829 130.017 24.9829 130.065 24.9829C130.065 25.3555 130.065 25.7282 130.065 26.1121C130.13 26.0526 130.194 25.9931 130.261 25.9318C130.347 25.8545 130.434 25.7771 130.523 25.6975C130.608 25.6205 130.693 25.5435 130.78 25.4642C131.063 25.2564 131.272 25.184 131.614 25.1241C131.614 25.5475 131.614 25.5475 131.474 25.8298C131.566 25.8764 131.659 25.923 131.755 25.9709C131.946 26.1563 132.134 26.3443 132.319 26.5355C131.994 26.9026 131.685 27.0786 131.236 27.2677C131.122 27.3163 131.008 27.3649 130.891 27.415C130.804 27.4508 130.718 27.4866 130.629 27.5236C130.341 27.2955 130.059 27.0598 129.784 26.8178C129.784 26.7247 129.784 26.6315 129.784 26.5355C129.691 26.5355 129.598 26.5355 129.502 26.5355C129.455 26.3492 129.409 26.1629 129.361 25.9709C129.454 25.9709 129.547 25.9709 129.643 25.9709C129.736 25.6449 129.829 25.3188 129.924 24.9829Z" fill="white"/>
<path d="M131.755 24.9829C132.034 24.9829 132.313 24.9829 132.6 24.9829C132.554 25.1692 132.507 25.3555 132.459 25.5475C132.692 25.5475 132.924 25.5475 133.163 25.5475C132.978 25.5941 132.792 25.6407 132.6 25.6887C132.6 25.7818 132.6 25.875 132.6 25.9709C132.693 26.0175 132.786 26.0641 132.882 26.1121C132.882 26.0189 132.882 25.9258 132.882 25.8298C133.068 25.8764 133.254 25.923 133.445 25.9709C133.329 26.0845 133.213 26.198 133.093 26.315C132.725 26.6093 132.725 26.6093 132.741 26.8178C132.416 26.8178 132.09 26.8178 131.755 26.8178C131.848 26.6781 131.941 26.5384 132.037 26.3944C131.851 26.2081 131.665 26.0218 131.474 25.8298C131.566 25.5503 131.659 25.2709 131.755 24.9829Z" fill="white"/>
<path d="M129.924 24.9829C129.971 24.9829 130.017 24.9829 130.065 24.9829C130.065 25.3555 130.065 25.7282 130.065 26.1121C130.13 26.0526 130.194 25.9931 130.261 25.9318C130.347 25.8545 130.434 25.7771 130.523 25.6975C130.608 25.6205 130.693 25.5435 130.78 25.4642C131.063 25.2564 131.272 25.184 131.614 25.1241C131.614 25.2638 131.614 25.4035 131.614 25.5475C131.475 25.5009 131.336 25.4543 131.192 25.4064C131.145 25.5461 131.099 25.6858 131.051 25.8298C130.958 25.8298 130.865 25.8298 130.769 25.8298C130.769 26.2024 130.769 26.5751 130.769 26.959C130.514 27.0472 130.514 27.0472 130.206 27.1001C130.067 27.007 129.927 26.9138 129.784 26.8178C129.784 26.7247 129.784 26.6315 129.784 26.5355C129.691 26.5355 129.598 26.5355 129.502 26.5355C129.455 26.3492 129.409 26.1629 129.361 25.9709C129.454 25.9709 129.547 25.9709 129.643 25.9709C129.736 25.6449 129.829 25.3188 129.924 24.9829Z" fill="white"/>
<path d="M127.53 24.9829C128.32 24.9829 129.11 24.9829 129.924 24.9829C129.878 25.3555 129.831 25.7282 129.784 26.1121C129.644 26.0655 129.505 26.0189 129.361 25.9709C129.408 25.7846 129.454 25.5983 129.502 25.4064C128.526 25.3365 128.526 25.3365 127.53 25.2652C127.53 25.172 127.53 25.0789 127.53 24.9829Z" fill="white"/>
<path d="M129.361 29.3589C129.5 29.3589 129.64 29.3589 129.784 29.3589C129.784 29.9644 129.784 30.5699 129.784 31.1938C129.737 31.1938 129.691 31.1938 129.643 31.1938C129.643 30.9143 129.643 30.6349 129.643 30.3469C129.55 30.3469 129.457 30.3469 129.361 30.3469C129.361 30.4401 129.361 30.5332 129.361 30.6292C129.268 30.6292 129.175 30.6292 129.079 30.6292C129.203 29.5177 129.203 29.5177 129.361 29.3589Z" fill="white"/>
<path d="M132.319 24.8418C132.458 24.8418 132.597 24.8418 132.741 24.8418C132.741 25.0281 132.741 25.2144 132.741 25.4064C133.206 25.4064 133.67 25.4064 134.149 25.4064C133.586 25.8298 133.586 25.8298 133.304 25.971C133.165 25.9244 133.025 25.8778 132.882 25.8298C132.882 25.923 132.882 26.0162 132.882 26.1121C132.742 26.0656 132.603 26.019 132.459 25.971C132.459 25.601 132.503 25.3345 132.6 24.9829C132.507 24.9364 132.414 24.8898 132.319 24.8418Z" fill="white"/>
<path d="M129.502 31.7583C129.548 31.7583 129.595 31.7583 129.643 31.7583C129.643 32.5501 129.643 33.342 129.643 34.1578C129.457 34.0647 129.271 33.9715 129.079 33.8755C129.172 33.8755 129.265 33.8755 129.361 33.8755C129.359 33.7818 129.358 33.6881 129.356 33.5916C129.343 32.3537 129.343 32.3537 129.502 31.7583Z" fill="white"/>
<path d="M135.135 25.1245C135.67 25.2011 135.906 25.4352 136.262 25.8303C135.844 25.8303 135.425 25.8303 134.994 25.8303C135.041 25.5974 135.087 25.3645 135.135 25.1245Z" fill="white"/>
<path d="M136.262 28.3706C136.541 28.4405 136.541 28.4405 136.825 28.5118C136.825 29.257 136.825 30.0023 136.825 30.7701C136.779 30.7701 136.732 30.7701 136.684 30.7701C136.676 30.6715 136.667 30.5729 136.658 30.4713C136.647 30.3428 136.635 30.2144 136.623 30.082C136.606 29.8904 136.606 29.8904 136.588 29.695C136.562 29.3571 136.562 29.3571 136.403 29.0763C136.263 29.1462 136.263 29.1462 136.121 29.2175C136.167 28.938 136.214 28.6585 136.262 28.3706Z" fill="white"/>
<path d="M131.051 26.1123C131.455 26.1932 131.595 26.2339 131.896 26.5357C131.896 26.6755 131.896 26.8152 131.896 26.9592C131.617 27.0524 131.338 27.1455 131.051 27.2415C131.005 27.1483 130.958 27.0552 130.91 26.9592C131.003 26.9592 131.096 26.9592 131.192 26.9592C131.145 26.6797 131.099 26.4002 131.051 26.1123Z" fill="white"/>
<path d="M127.53 25.9712C127.577 25.9712 127.623 25.9712 127.671 25.9712C127.703 26.1944 127.731 26.418 127.759 26.6416C127.775 26.7661 127.792 26.8906 127.809 27.0188C127.812 27.4149 127.734 27.6133 127.53 27.9473C127.484 27.9473 127.437 27.9473 127.389 27.9473C127.386 27.6709 127.383 27.3944 127.381 27.118C127.379 26.9641 127.377 26.8102 127.376 26.6516C127.389 26.2535 127.389 26.2535 127.53 25.9712Z" fill="white"/>
<path d="M129.924 24.9829C129.971 24.9829 130.017 24.9829 130.065 24.9829C130.064 25.0799 130.062 25.1769 130.06 25.2768C130.059 25.404 130.058 25.5312 130.056 25.6622C130.055 25.7883 130.053 25.9144 130.051 26.0443C130.05 26.4133 130.05 26.4133 130.206 26.8178C130.067 26.8178 129.927 26.8178 129.784 26.8178C129.784 26.7247 129.784 26.6315 129.784 26.5355C129.691 26.5355 129.598 26.5355 129.502 26.5355C129.455 26.3492 129.409 26.1629 129.361 25.9709C129.454 25.9709 129.547 25.9709 129.643 25.9709C129.736 25.6449 129.829 25.3188 129.924 24.9829Z" fill="white"/>
<path d="M131.755 24.9829C132.034 24.9829 132.313 24.9829 132.6 24.9829C132.554 25.1692 132.507 25.3555 132.459 25.5475C132.227 25.5009 131.995 25.4543 131.755 25.4064C131.755 25.2666 131.755 25.1269 131.755 24.9829Z" fill="white"/>
<path d="M126.967 32.8877C127.249 33.1347 127.249 33.1347 127.53 33.4523C127.53 33.6386 127.53 33.8249 127.53 34.0169C127.344 33.9703 127.158 33.9237 126.967 33.8757C126.967 33.5497 126.967 33.2236 126.967 32.8877Z" fill="white"/>
<path d="M131.333 25.1245C131.472 25.1711 131.612 25.2177 131.755 25.2657C131.662 25.3588 131.569 25.452 131.474 25.548C131.381 25.5014 131.288 25.4548 131.192 25.4068C131.145 25.5465 131.099 25.6863 131.051 25.8303C130.865 25.7837 130.679 25.7371 130.488 25.6891C130.884 25.398 130.884 25.398 131.333 25.1245Z" fill="white"/>
<path d="M57.099 42.0849C57.197 42.1706 57.295 42.2563 57.396 42.3446C57.5115 42.4434 57.627 42.5422 57.7459 42.644C60.827 45.3437 62.7025 48.9953 64.4376 52.6484C64.4847 52.7457 64.5317 52.8429 64.5801 52.9431C64.8769 53.5859 64.8769 53.5859 64.7193 54.0599C64.6705 53.9989 64.6217 53.9379 64.5714 53.875C63.695 52.7816 62.8216 51.6958 61.8614 50.6745C61.621 50.39 61.621 50.39 61.4818 50.0879C61.2979 49.7491 61.1202 49.707 60.776 49.5432C60.5426 49.3334 60.3143 49.118 60.0895 48.8992C56.8746 45.9259 53.0353 45.0103 48.7581 45.1406C46.2691 45.2706 43.8511 45.9878 41.4821 46.7202C41.2541 46.7904 41.2541 46.7904 41.0215 46.8621C37.1497 48.0721 33.3787 49.5905 29.6069 51.0785C22.4045 53.9182 14.837 55.8084 7.37437 52.8249C5.29409 51.8974 3.51009 50.4083 2.19 48.5551C2.64643 48.5551 2.78703 48.6248 3.17472 48.844C3.2848 48.9049 3.39487 48.9658 3.50827 49.0285C3.62513 49.0935 3.74198 49.1586 3.86238 49.2256C7.25282 51.0656 10.8606 51.0391 14.5111 49.9629C16.8376 49.2435 19.1091 48.3965 21.3431 47.4259C21.5097 47.3539 21.6762 47.2818 21.8478 47.2076C23.5306 46.4788 25.2113 45.745 26.8779 44.9795C35.3421 41.0981 48.7187 35.1225 57.099 42.0849Z" fill="white"/>
<path d="M2.19 48.4141C2.729 48.6103 3.21473 48.8666 3.7145 49.1443C5.49231 50.1283 7.17819 50.6464 9.21399 50.7518C9.32436 50.7579 9.43474 50.764 9.54846 50.7703C9.81837 50.7851 10.0883 50.7994 10.3582 50.8136C10.3582 50.8602 10.3582 50.9067 10.3582 50.9547C9.80055 50.9547 9.24286 50.9547 8.66826 50.9547C8.73798 51.2342 8.73798 51.2342 8.8091 51.5193C8.66967 51.5892 8.66967 51.5892 8.52743 51.6605C8.32391 52.1704 8.24577 52.5168 8.24577 53.072C6.09844 52.4883 3.54781 50.825 2.41005 48.8463C2.33744 48.7037 2.26482 48.561 2.19 48.4141Z" fill="white"/>
<path d="M61.7619 47.8491C62.1266 48.1783 62.3351 48.5142 62.5606 48.9496C62.6306 49.0841 62.7005 49.2185 62.7726 49.357C62.8457 49.4998 62.9188 49.6427 62.9941 49.7899C63.1064 50.008 63.1064 50.008 63.2209 50.2306C63.6494 51.0676 64.0752 51.906 64.4817 52.754C64.5596 52.9163 64.6374 53.0786 64.7177 53.2458C64.8602 53.6362 64.8602 53.6362 64.7193 54.0596C64.6705 53.9986 64.6217 53.9376 64.5714 53.8747C63.695 52.7813 62.8216 51.6955 61.8614 50.6743C61.621 50.3898 61.621 50.3898 61.473 50.0788C61.3499 49.7745 61.3499 49.7745 60.9169 49.684C61.1809 49.5341 61.1809 49.5341 61.4802 49.4018C61.5731 49.4483 61.6661 49.4949 61.7619 49.5429C61.9051 48.8685 61.9051 48.8685 61.7707 48.2108C61.7213 48.138 61.6719 48.0653 61.621 47.9903C61.6675 47.9437 61.714 47.8971 61.7619 47.8491Z" fill="white"/>
<path d="M63.311 50.9546C63.4039 50.9546 63.4969 50.9546 63.5926 50.9546C63.8091 51.3917 64.0224 51.8302 64.2352 52.269C64.2968 52.3934 64.3584 52.5178 64.4219 52.6459C64.4796 52.7655 64.5372 52.8852 64.5966 53.0084C64.6774 53.1736 64.6774 53.1736 64.7598 53.3422C64.8601 53.6364 64.8601 53.6364 64.7193 54.0599C64.4191 53.6959 64.1202 53.331 63.8215 52.966C63.7365 52.863 63.6516 52.76 63.564 52.6539C63.4823 52.5538 63.4006 52.4537 63.3165 52.3506C63.2412 52.259 63.166 52.1673 63.0885 52.0729C62.8908 51.8046 62.7459 51.5392 62.6068 51.2369C62.7927 51.2835 62.9786 51.33 63.1701 51.378C63.2166 51.2383 63.2631 51.0986 63.311 50.9546Z" fill="white"/>
<path d="M2.19 48.4141C2.77309 48.632 3.30758 48.9095 3.85358 49.208C3.93772 49.2539 4.02187 49.2997 4.10856 49.347C4.31422 49.4591 4.51962 49.5717 4.72497 49.6844C4.30248 49.9667 4.30248 49.9667 4.02082 49.9667C4.06729 50.1996 4.11376 50.4325 4.16165 50.6724C3.38022 50.0491 2.7597 49.3796 2.19 48.5552C2.19 48.5086 2.19 48.4621 2.19 48.4141Z" fill="white"/>
<path d="M62.1843 49.543C62.7344 49.6655 62.972 49.7437 63.3022 50.2134C63.468 50.7219 63.4447 51.0072 63.311 51.519C63.1716 51.519 63.0321 51.519 62.8885 51.519C62.8885 51.4259 62.8885 51.3327 62.8885 51.2367C62.7955 51.2367 62.7026 51.2367 62.6068 51.2367C62.4674 50.6778 62.328 50.1189 62.1843 49.543Z" fill="white"/>
<path d="M5.77241 50.1167C5.95104 50.1822 5.95104 50.1822 6.13329 50.249C6.13329 50.2956 6.13329 50.3422 6.13329 50.3902C5.80797 50.3436 5.48265 50.297 5.14747 50.249C5.14747 50.3422 5.14747 50.4354 5.14747 50.5313C5.05452 50.5313 4.96157 50.5313 4.8658 50.5313C4.8658 50.7642 4.8658 50.9971 4.8658 51.2371C4.52253 51.0783 4.52253 51.0783 4.16164 50.8136C4.04722 50.3637 4.04722 50.3637 4.02081 49.9667C4.57276 49.6902 5.20903 49.9422 5.77241 50.1167Z" fill="white"/>
<path d="M19.9348 48.2729C19.9348 48.366 19.9348 48.4592 19.9348 48.5552C19.5827 48.7669 19.5827 48.7669 19.2307 48.9786C19.2307 49.0718 19.2307 49.1649 19.2307 49.2609C19.0448 49.3075 18.8589 49.3541 18.6673 49.402C18.6673 49.3089 18.6673 49.2157 18.6673 49.1197C18.5105 49.1634 18.5105 49.1634 18.3505 49.208C17.9099 49.2682 17.7764 49.1899 17.3998 48.9786C17.7691 48.8332 18.1387 48.6893 18.5089 48.5463C18.614 48.5048 18.7191 48.4632 18.8274 48.4203C19.6212 48.1157 19.6212 48.1157 19.9348 48.2729Z" fill="white"/>
<path d="M24.3006 52.084C24.6259 52.084 24.9513 52.084 25.2864 52.084C25.3329 52.2703 25.3794 52.4566 25.4273 52.6486C25.2016 52.7199 24.9756 52.7903 24.7495 52.8603C24.5608 52.9193 24.5608 52.9193 24.3683 52.9794C24.019 53.072 24.019 53.072 23.5965 53.072C23.6429 52.9323 23.6894 52.7925 23.7373 52.6486C23.6443 52.5554 23.5514 52.4623 23.4556 52.3663C23.7345 52.3663 24.0133 52.3663 24.3006 52.3663C24.3006 52.2731 24.3006 52.18 24.3006 52.084Z" fill="white"/>
<path d="M56.1285 46.1558C56.3994 46.1891 56.6703 46.2226 56.9411 46.2572C57.2216 46.2927 57.5025 46.3258 57.7833 46.3587C58.1864 46.4286 58.4572 46.5116 58.8043 46.7204C58.7114 46.9067 58.6184 47.093 58.5227 47.2849C58.5227 47.1918 58.5227 47.0986 58.5227 47.0027C58.4444 47.0572 58.3662 47.1118 58.2856 47.1681C57.9594 47.2849 57.9594 47.2849 57.6111 47.1372C57.4306 47.0182 57.4306 47.0182 57.2464 46.8968C57.1257 46.8189 57.0049 46.741 56.8806 46.6608C56.7718 46.5873 56.6631 46.5138 56.551 46.4381C56.4116 46.3449 56.2722 46.2517 56.1285 46.1558Z" fill="white"/>
<path d="M29.793 44.0382C29.7465 44.2711 29.7001 44.504 29.6522 44.7439C29.2339 44.7439 28.8156 44.7439 28.3847 44.7439C28.3847 44.6042 28.3847 44.4644 28.3847 44.3205C29.3177 43.8794 29.3177 43.8794 29.793 44.0382Z" fill="white"/>
<path d="M37.2571 47.4258C37.3036 47.5189 37.35 47.6121 37.3979 47.7081C37.4909 47.7081 37.5838 47.7081 37.6796 47.7081C37.6796 47.8012 37.6796 47.8944 37.6796 47.9904C37.1219 48.1767 36.5642 48.363 35.9896 48.555C35.9896 48.4152 35.9896 48.2755 35.9896 48.1315C35.8037 48.0849 35.6178 48.0384 35.4263 47.9904C35.8734 47.7211 36.1453 47.6854 36.6585 47.761C36.7711 47.7767 36.8837 47.7923 36.9996 47.8084C37.0846 47.8219 37.1695 47.8354 37.2571 47.8492C37.2571 47.7095 37.2571 47.5698 37.2571 47.4258Z" fill="white"/>
<path d="M22.0473 47.4258C21.9572 47.4636 21.8672 47.5014 21.7744 47.5404C21.4373 47.6921 21.4373 47.6921 21.3431 48.1315C20.9118 48.2991 20.9118 48.2991 20.4981 48.4138C20.4981 48.3206 20.4981 48.2275 20.4981 48.1315C20.3122 48.0849 20.1263 48.0383 19.9348 47.9903C20.2069 47.8681 20.48 47.748 20.7534 47.6287C20.9053 47.5615 21.0573 47.4944 21.2139 47.4252C21.6248 47.2846 21.6248 47.2846 22.0473 47.4258Z" fill="white"/>
<path d="M11.6257 53.354C11.6722 53.5404 11.7187 53.7267 11.7666 53.9186C11.1299 54.1242 10.708 53.9568 10.0766 53.7775C10.5716 53.3013 10.9583 53.3154 11.6257 53.354Z" fill="white"/>
<path d="M26.8355 45.0264C26.882 45.1195 26.9285 45.2127 26.9764 45.3087C26.8369 45.4484 26.6975 45.5881 26.5539 45.7321C26.6004 45.8253 26.6468 45.9184 26.6947 46.0144C26.4623 46.061 26.23 46.1076 25.9905 46.1556C25.8511 45.9692 25.7117 45.7829 25.5681 45.591C25.9863 45.4046 26.4046 45.2183 26.8355 45.0264Z" fill="white"/>
<path d="M50.6361 39.3804C50.9073 39.3875 50.9073 39.3875 51.2435 39.4245C51.4082 39.4411 51.4082 39.4411 51.5763 39.4581C51.9152 39.5238 52.1672 39.6354 52.4669 39.8038C52.4205 39.897 52.374 39.9901 52.3261 40.0861C52.4191 40.1327 52.512 40.1793 52.6078 40.2273C52.3289 40.2273 52.0501 40.2273 51.7628 40.2273C51.7163 40.0409 51.6698 39.8546 51.622 39.6627C51.5 39.7063 51.5 39.7063 51.3755 39.7509C50.9854 39.816 50.8269 39.7233 50.4953 39.5215C50.5418 39.4749 50.5882 39.4284 50.6361 39.3804Z" fill="white"/>
<path d="M2.19 48.4141C2.60855 48.5728 2.94126 48.7278 3.31666 48.9787C3.41348 49.3492 3.41348 49.3492 3.45749 49.6844C3.31806 49.6844 3.17864 49.6844 3.03499 49.6844C2.80889 49.4424 2.80889 49.4424 2.58609 49.1286C2.51148 49.0255 2.43687 48.9223 2.35999 48.816C2.19 48.5552 2.19 48.5552 2.19 48.4141Z" fill="white"/>
<path d="M16.5548 49.4019C16.4191 49.7419 16.3222 49.9326 16.0179 50.1429C15.6643 50.2644 15.377 50.2694 15.0057 50.2487C15.0057 50.109 15.0057 49.9693 15.0057 49.8253C15.2109 49.7542 15.4163 49.6838 15.6218 49.6136C15.7362 49.5743 15.8506 49.535 15.9684 49.4945C16.2732 49.4019 16.2732 49.4019 16.5548 49.4019Z" fill="white"/>
<path d="M62.6068 50.5312C63.0106 50.6122 63.1507 50.6528 63.4518 50.9547C63.3589 51.141 63.2659 51.3273 63.1702 51.5193C63.0772 51.5193 62.9843 51.5193 62.8885 51.5193C62.8885 51.4261 62.8885 51.333 62.8885 51.237C62.7955 51.237 62.7026 51.237 62.6068 51.237C62.5604 51.0973 62.5139 50.9575 62.466 50.8135C62.5125 50.7204 62.559 50.6272 62.6068 50.5312Z" fill="white"/>
<path d="M64.156 52.3662C64.5347 52.7458 64.6761 53.1359 64.8601 53.6365C64.8137 53.7763 64.7672 53.916 64.7193 54.06C64.2107 53.5378 64.2107 53.5378 64.0151 53.2131C64.0415 52.7367 64.0415 52.7367 64.156 52.3662Z" fill="white"/>
<path d="M23.5965 46.5791C23.5965 46.6723 23.5965 46.7654 23.5965 46.8614C23.457 46.8614 23.3176 46.8614 23.174 46.8614C23.1275 47.0477 23.081 47.234 23.0331 47.426C22.7543 47.426 22.4754 47.426 22.1881 47.426C22.1417 47.3328 22.0952 47.2397 22.0473 47.1437C22.2524 47.049 22.4578 46.955 22.6634 46.8614C22.7778 46.809 22.8922 46.7566 23.01 46.7026C23.3148 46.5791 23.3148 46.5791 23.5965 46.5791Z" fill="white"/>
<path d="M26.4131 51.519C26.8778 51.5656 27.3426 51.6122 27.8214 51.6602C27.3588 51.9693 26.9473 52.0834 26.4131 52.2248C26.4131 51.9919 26.4131 51.759 26.4131 51.519Z" fill="white"/>
<path d="M39.3696 46.5791C39.5555 46.5791 39.7414 46.5791 39.9329 46.5791C39.9329 46.6723 39.9329 46.7654 39.9329 46.8614C40.1653 46.8614 40.3977 46.8614 40.6371 46.8614C40.2654 47.0609 39.9229 47.1963 39.5104 47.2848C39.5104 47.1917 39.5104 47.0985 39.5104 47.0025C39.371 46.956 39.2316 46.9094 39.088 46.8614C39.1809 46.7682 39.2738 46.6751 39.3696 46.5791Z" fill="white"/>
<path d="M56.4102 45.3086C56.5497 45.3552 56.6891 45.4018 56.8327 45.4497C56.8327 45.5429 56.8327 45.6361 56.8327 45.732C56.5159 45.979 56.5159 45.979 56.1286 46.1555C55.8029 46.0408 55.8029 46.0408 55.5652 45.8732C55.9613 45.5821 55.9613 45.5821 56.4102 45.3086Z" fill="white"/>
<path d="M7.25997 51.9429C7.54163 52.3663 7.54163 52.3663 7.54163 52.7898C6.73185 52.5251 6.73185 52.5251 6.41498 52.3663C6.41498 52.2732 6.41498 52.18 6.41498 52.084C6.5849 52.0884 6.5849 52.0884 6.75826 52.0928C7.10978 52.1258 7.10978 52.1258 7.25997 51.9429Z" fill="white"/>
<path d="M4.86578 50.6724C5.14745 50.8135 5.14745 50.8135 5.42911 51.0958C5.47559 51.0027 5.52206 50.9095 5.56994 50.8135C5.70937 50.8601 5.84879 50.9067 5.99244 50.9547C5.94596 51.141 5.89949 51.3273 5.85161 51.5193C5.43334 51.4494 5.43334 51.4494 5.00662 51.3781C4.96014 51.1452 4.91367 50.9123 4.86578 50.6724Z" fill="white"/>
<path d="M43.4537 39.5215C43.4185 39.7862 43.4185 39.7862 43.3129 40.0861C43.0224 40.2626 43.0224 40.2626 42.7496 40.3684C42.7031 40.2287 42.6566 40.089 42.6087 39.945C42.3271 39.7744 42.3271 39.7744 42.0454 39.6627C42.525 39.5528 42.9619 39.5075 43.4537 39.5215Z" fill="white"/>
<path d="M62.6068 51.2368C62.9554 51.3766 62.9554 51.3766 63.311 51.5191C63.311 51.6588 63.311 51.7986 63.311 51.9426C63.4039 51.9426 63.4969 51.9426 63.5926 51.9426C63.6391 52.1755 63.6856 52.4083 63.7335 52.6483C63.2704 52.2093 62.9114 51.7991 62.6068 51.2368Z" fill="white"/>
<path d="M35.0038 48.6963C35.0038 48.7894 35.0038 48.8826 35.0038 48.9786C34.3764 49.1882 34.3764 49.1882 33.7363 49.402C33.6898 49.3089 33.6433 49.2157 33.5955 49.1197C33.6884 49.1197 33.7814 49.1197 33.8771 49.1197C33.8771 49.0266 33.8771 48.9334 33.8771 48.8374C34.6869 48.6963 34.6869 48.6963 35.0038 48.6963Z" fill="white"/>
<path d="M56.4102 41.6387C56.6426 41.7784 56.8749 41.9181 57.1144 42.0621C57.0679 42.1553 57.0214 42.2484 56.9735 42.3444C56.8806 42.3444 56.7876 42.3444 56.6919 42.3444C56.6919 42.4376 56.6919 42.5307 56.6919 42.6267C56.5989 42.6267 56.506 42.6267 56.4102 42.6267C56.4102 42.5336 56.4102 42.4404 56.4102 42.3444C56.3173 42.2978 56.2243 42.2513 56.1285 42.2033C56.2215 42.2033 56.3144 42.2033 56.4102 42.2033C56.4102 42.0169 56.4102 41.8306 56.4102 41.6387Z" fill="white"/>
<path d="M58.8044 46.7202C58.9515 47.1625 58.9359 47.2834 58.8044 47.7083C58.5315 47.5936 58.5315 47.5936 58.2411 47.426C58.1946 47.2862 58.1481 47.1465 58.1002 47.0025C58.2861 47.0025 58.472 47.0025 58.6635 47.0025C58.71 46.9094 58.7565 46.8162 58.8044 46.7202Z" fill="white"/>
<path d="M42.6087 45.4497C43.027 45.5196 43.027 45.5196 43.4537 45.5909C43.4072 45.7772 43.3607 45.9635 43.3129 46.1554C43.0805 46.202 42.8481 46.2486 42.6087 46.2966C42.6348 46.2093 42.661 46.1219 42.6879 46.0319C42.7829 45.7261 42.7829 45.7261 42.6087 45.4497Z" fill="white"/>
<path d="M62.1843 50.1079C62.3956 50.2755 62.3956 50.2755 62.6068 50.5314C62.6333 50.9107 62.6333 50.9107 62.6068 51.2371C62.4209 51.0974 62.235 50.9576 62.0435 50.8137C62.09 50.5808 62.1365 50.3479 62.1843 50.1079Z" fill="white"/>
<path d="M4.72498 49.8252C5.18972 49.9649 5.65447 50.1047 6.13329 50.2486C6.13329 50.2952 6.13329 50.3418 6.13329 50.3898C5.71502 50.3898 5.29675 50.3898 4.86581 50.3898C4.81933 50.2035 4.77286 50.0172 4.72498 49.8252Z" fill="white"/>
<path d="M28.1031 44.4619C28.1031 44.6017 28.1031 44.7414 28.1031 44.8854C27.8242 45.0251 27.8242 45.0251 27.5397 45.1677C27.4003 45.0745 27.2609 44.9813 27.1172 44.8854C27.4426 44.7456 27.7679 44.6059 28.1031 44.4619Z" fill="white"/>
<path d="M62.1843 49.8252C62.2308 49.9184 62.2773 50.0115 62.3252 50.1075C62.1931 50.4074 62.1931 50.4074 62.0435 50.6721C61.8576 50.4858 61.6717 50.2995 61.4802 50.1075C61.7125 50.0143 61.9449 49.9212 62.1843 49.8252Z" fill="white"/>
<path d="M32.6097 49.2607C32.8885 49.2607 33.1674 49.2607 33.4547 49.2607C33.5011 49.3539 33.5476 49.4471 33.5955 49.543C33.2702 49.6362 32.9449 49.7294 32.6097 49.8253C32.6097 49.639 32.6097 49.4527 32.6097 49.2607Z" fill="white"/>
<path d="M59.5086 44.603C59.648 44.7428 59.7874 44.8825 59.9311 45.0265C59.8381 45.0265 59.7452 45.0265 59.6494 45.0265C59.6029 45.1196 59.5564 45.2128 59.5086 45.3088C59.3691 45.2622 59.2297 45.2156 59.0861 45.1676C59.0861 45.0279 59.0861 44.8881 59.0861 44.7442C59.2255 44.6976 59.3649 44.651 59.5086 44.603Z" fill="white"/>
<path d="M36.5529 41.2153C36.5529 41.3551 36.5529 41.4948 36.5529 41.6388C36.2276 41.6854 35.9023 41.7319 35.5671 41.7799C35.5206 41.6868 35.4742 41.5936 35.4263 41.4976C36.2361 41.2153 36.2361 41.2153 36.5529 41.2153Z" fill="white"/>
<path d="M79.225 25.4066C79.689 25.8001 79.9691 26.213 80.07 26.8181C80.069 27.1256 80.0588 27.433 80.043 27.74C80.0349 27.9216 80.0269 28.1032 80.0185 28.2903C80.0006 28.6689 79.9812 29.0475 79.9613 29.4261C79.8816 31.2732 80.0196 32.7413 81.0558 34.299C79.7545 34.299 78.4532 34.299 77.1125 34.299C77.2585 30.8507 77.2585 30.8507 77.3942 29.6411C77.3121 29.6753 77.2301 29.7095 77.1455 29.7448C76.4691 30.0219 75.7963 30.2663 75.0969 30.4792C74.4168 30.7058 73.9785 30.8587 73.5917 31.476C73.5667 31.9949 73.5667 31.9949 73.7325 32.4641C74.2665 32.8209 74.6914 32.778 75.3081 32.764C75.4137 32.7627 75.5192 32.7615 75.628 32.7601C75.8881 32.7568 76.1482 32.7518 76.4083 32.7464C76.3648 32.9523 76.3207 33.1581 76.2763 33.3639C76.2518 33.4785 76.2273 33.5931 76.2021 33.7112C76.1267 34.0167 76.1267 34.0167 75.9859 34.299C75.0521 34.6604 73.4401 34.5895 72.5091 34.2725C71.715 33.8371 71.2578 33.3471 70.9792 32.4883C70.839 31.8089 70.9015 31.2294 71.2064 30.6049C72.1768 29.1349 74.0142 28.851 75.6109 28.4548C75.7621 28.4153 75.9132 28.3757 76.0689 28.3349C76.2734 28.284 76.2734 28.284 76.482 28.2321C76.8918 28.0634 77.0381 27.9081 77.2533 27.5239C77.2542 27.1519 77.2542 27.1519 77.1125 26.8181C76.6052 26.4791 76.2294 26.4873 75.6426 26.4917C75.4926 26.4922 75.4926 26.4922 75.3396 26.4926C74.4341 26.5096 73.6114 26.6929 72.7467 26.9593C72.5592 27.0075 72.3716 27.055 72.1834 27.1004C72.2033 26.8739 72.224 26.6475 72.245 26.4211C72.2564 26.2951 72.2679 26.169 72.2797 26.0391C72.3242 25.6889 72.3242 25.6889 72.4651 25.2655C74.5066 24.7793 77.3381 24.2256 79.225 25.4066Z" fill="white"/>
<path d="M76.3027 24.7981C76.4301 24.7974 76.5575 24.7966 76.6888 24.7959C77.2936 24.8023 77.7042 24.8193 78.2392 25.1245C78.0998 25.2118 77.9603 25.2992 77.8167 25.3892C77.6773 25.4881 77.5378 25.5871 77.3942 25.6891C77.3828 25.9864 77.3828 25.9864 77.4822 26.3243C77.4996 26.4407 77.5171 26.5572 77.535 26.6771C77.4421 26.7703 77.3491 26.8635 77.2534 26.9594C77.1822 26.8907 77.111 26.8219 77.0377 26.751C76.5735 26.4639 76.1626 26.4725 75.6338 26.4831C75.5344 26.484 75.4351 26.4849 75.3327 26.4859C74.4318 26.5086 73.6071 26.6944 72.7467 26.9594C72.5593 27.0077 72.3716 27.0552 72.1834 27.1006C72.2033 26.8741 72.224 26.6477 72.245 26.4213C72.2565 26.2952 72.2679 26.1691 72.2797 26.0392C72.3242 25.6891 72.3242 25.6891 72.4651 25.2657C73.7479 24.9601 74.9819 24.7999 76.3027 24.7981Z" fill="white"/>
<path d="M74.7184 24.8421C75.1995 24.8339 75.6807 24.8289 76.1619 24.8245C76.2982 24.8221 76.4346 24.8197 76.5751 24.8173C76.7067 24.8164 76.8383 24.8155 76.9739 24.8145C77.0948 24.8131 77.2158 24.8116 77.3404 24.8101C77.7011 24.8445 77.9287 24.9423 78.2392 25.1244C78.0998 25.2117 77.9603 25.2991 77.8167 25.3891C77.6773 25.488 77.5378 25.587 77.3942 25.689C77.3828 25.9863 77.3828 25.9863 77.4822 26.3242C77.4996 26.4406 77.5171 26.5571 77.535 26.677C77.4421 26.7702 77.3491 26.8634 77.2534 26.9593C77.18 26.8915 77.1067 26.8236 77.0311 26.7537C76.5902 26.4721 76.2586 26.4649 75.7394 26.4388C75.5746 26.4296 75.4097 26.4203 75.2399 26.4107C75.1143 26.4055 74.9886 26.4002 74.8592 26.3947C74.8592 26.3482 74.8592 26.3016 74.8592 26.2536C75.231 26.207 75.6028 26.1604 75.9859 26.1124C75.8929 25.9727 75.8 25.833 75.7042 25.689C75.7042 25.5958 75.7042 25.5027 75.7042 25.4067C75.6113 25.3601 75.5183 25.3135 75.4225 25.2656C75.4225 25.1724 75.4225 25.0792 75.4225 24.9833C75.1902 24.9833 74.9578 24.9833 74.7184 24.9833C74.7184 24.9367 74.7184 24.8901 74.7184 24.8421Z" fill="white"/>
<path d="M75.4225 24.9832C75.4225 25.0763 75.4225 25.1695 75.4225 25.2655C75.6084 25.3586 75.7943 25.4518 75.9859 25.5478C75.9859 25.6875 75.9859 25.8272 75.9859 25.9712C76.0323 26.0644 76.0788 26.1575 76.1267 26.2535C75.8598 26.2812 75.5928 26.3074 75.3257 26.3329C75.1027 26.355 75.1027 26.355 74.8752 26.3776C74.4629 26.3936 74.1309 26.3535 73.7326 26.2535C73.7326 26.1603 73.7326 26.0672 73.7326 25.9712C73.5931 25.9246 73.4537 25.878 73.3101 25.83C73.5889 25.6903 73.8678 25.5506 74.155 25.4066C74.1086 25.3134 74.0621 25.2203 74.0142 25.1243C74.4669 24.8974 74.9206 24.975 75.4225 24.9832Z" fill="white"/>
<path d="M76.4084 32.7466C76.3154 33.1658 76.2225 33.585 76.1267 34.0169C75.4993 34.0868 75.4993 34.0868 74.8592 34.1581C74.7184 33.5935 74.7184 33.5935 74.7184 33.17C74.6254 33.0769 74.5325 32.9837 74.4367 32.8877C74.6861 32.864 74.9355 32.8405 75.1849 32.8172C75.3238 32.8041 75.4626 32.791 75.6057 32.7775C75.9859 32.7466 75.9859 32.7466 76.4084 32.7466Z" fill="white"/>
<path d="M76.4612 25.5039C77.0681 25.5116 77.0681 25.5116 77.403 25.7862C77.5522 26.1551 77.5678 26.4239 77.535 26.8184C77.1125 26.8184 77.1125 26.8184 76.69 26.5361C76.2396 26.4711 76.2396 26.4711 75.7482 26.4478C75.5821 26.4373 75.416 26.4267 75.2448 26.4159C75.1176 26.4089 74.9903 26.402 74.8592 26.3949C74.8592 26.3483 74.8592 26.3017 74.8592 26.2538C75.231 26.2072 75.6028 26.1606 75.9858 26.1126C75.8929 25.9729 75.7999 25.8331 75.7042 25.6892C75.9266 25.4663 76.1539 25.5134 76.4612 25.5039Z" fill="white"/>
<path d="M73.8734 32.8877C74.4775 32.9343 75.0817 32.9809 75.7042 33.0288C75.7042 33.0754 75.7042 33.122 75.7042 33.17C75.4718 33.2166 75.2394 33.2631 75 33.3111C74.9535 33.5906 74.9071 33.8701 74.8592 34.158C75.231 34.0649 75.6028 33.9717 75.9858 33.8757C75.9858 34.0155 75.9858 34.1552 75.9858 34.2992C74.7152 34.3867 74.7152 34.3867 74.2166 34.0698C74.0142 33.7346 74.0142 33.7346 73.8734 32.8877Z" fill="white"/>
<path d="M77.8166 33.5933C77.9561 33.5933 78.0955 33.5933 78.2391 33.5933C78.2391 33.6864 78.2391 33.7796 78.2391 33.8756C78.9827 33.9221 79.7263 33.9687 80.4925 34.0167C80.4925 34.1099 80.4925 34.203 80.4925 34.299C79.3771 34.299 78.2617 34.299 77.1125 34.299C77.159 34.1127 77.2054 33.9264 77.2533 33.7344C77.4392 33.7344 77.6251 33.7344 77.8166 33.7344C77.8166 33.6878 77.8166 33.6413 77.8166 33.5933Z" fill="white"/>
<path d="M73.3101 29.2178C73.3101 29.4041 73.3101 29.5904 73.3101 29.7824C73.0312 29.8755 72.7524 29.9687 72.4651 30.0647C72.4651 30.1578 72.4651 30.251 72.4651 30.347C72.1834 30.2058 72.1834 30.2058 72.0426 30.0647C72.0426 30.2044 72.0426 30.3441 72.0426 30.4881C71.8567 30.395 71.6708 30.3018 71.4792 30.2058C71.6609 30.0673 71.8429 29.9292 72.025 29.7912C72.1769 29.6757 72.1769 29.6757 72.3319 29.558C72.7053 29.2867 72.8382 29.2178 73.3101 29.2178Z" fill="white"/>
<path d="M75.845 28.5117C75.8915 28.7446 75.938 28.9775 75.9859 29.2175C75.8 29.3572 75.6141 29.4969 75.4225 29.6409C75.3296 29.5943 75.2366 29.5477 75.1409 29.4998C75.1873 29.3134 75.2338 29.1271 75.2817 28.9352C75.1423 28.9817 75.0028 29.0283 74.8592 29.0763C74.6628 29.0857 74.466 29.0884 74.2695 29.0851C74.0037 29.0808 74.0037 29.0808 73.7325 29.0763C74.371 28.703 75.1089 28.5117 75.845 28.5117Z" fill="white"/>
<path d="M74.2959 30.4878C74.2959 30.581 74.2959 30.6741 74.2959 30.7701C74.126 30.936 74.126 30.936 73.9526 31.1053C73.6173 31.4495 73.5021 31.5785 73.4509 32.0404C73.3579 32.0404 73.265 32.0404 73.1692 32.0404C72.9626 31.502 73.1082 31.1526 73.3101 30.6289C73.979 30.4878 73.979 30.4878 74.2959 30.4878Z" fill="white"/>
<path d="M74.2959 25.1242C74.3888 25.2174 74.4818 25.3105 74.5775 25.4065C73.9501 25.6161 73.9501 25.6161 73.31 25.8299C73.31 25.7368 73.31 25.6436 73.31 25.5476C73.2171 25.5011 73.1241 25.4545 73.0284 25.4065C73.0284 25.3133 73.0284 25.2202 73.0284 25.1242C73.5002 25.006 73.8353 24.9491 74.2959 25.1242Z" fill="white"/>
<path d="M77.2533 27.5239C77.3463 27.5239 77.4392 27.5239 77.535 27.5239C77.535 27.7568 77.535 27.9897 77.535 28.2297C77.3752 28.2704 77.2155 28.3112 77.0509 28.3532C76.8853 28.4056 76.7197 28.458 76.5492 28.512C76.5027 28.6051 76.4562 28.6983 76.4083 28.7943C76.2689 28.7477 76.1295 28.7011 75.9858 28.6531C75.9858 28.56 75.9858 28.4668 75.9858 28.3708C76.1427 28.3097 76.2995 28.2485 76.4611 28.1856C76.9963 27.9898 76.9963 27.9898 77.2533 27.5239Z" fill="white"/>
<path d="M74.0142 33.7344C74.2001 33.8275 74.386 33.9207 74.5776 34.0167C74.5776 34.1098 74.5776 34.203 74.5776 34.299C74.8564 34.299 75.1353 34.299 75.4225 34.299C75.4225 34.3455 75.4225 34.3921 75.4225 34.4401C74.9578 34.4401 74.4931 34.4401 74.0142 34.4401C74.0142 34.347 74.0142 34.2538 74.0142 34.1578C73.8748 34.1112 73.7354 34.0647 73.5917 34.0167C73.7312 33.9235 73.8706 33.8304 74.0142 33.7344Z" fill="white"/>
<path d="M78.38 25.1245C78.38 25.2177 78.38 25.3108 78.38 25.4068C78.1941 25.4068 78.0082 25.4068 77.8166 25.4068C77.8631 25.5465 77.9096 25.6863 77.9575 25.8303C77.6786 25.97 77.6786 25.97 77.3942 26.1126C77.3012 25.9728 77.2083 25.8331 77.1125 25.6891C77.5163 25.2844 77.8048 25.1245 78.38 25.1245Z" fill="white"/>
<path d="M76.4084 32.7466C76.3619 33.0261 76.3154 33.3055 76.2675 33.5935C76.2007 33.5265 76.1339 33.4596 76.0651 33.3906C75.547 33.0739 75.0335 33.0659 74.4367 33.0289C74.4367 32.9823 74.4367 32.9357 74.4367 32.8877C74.6861 32.864 74.9355 32.8405 75.1849 32.8172C75.3238 32.8041 75.4626 32.791 75.6057 32.7775C75.9859 32.7466 75.9859 32.7466 76.4084 32.7466Z" fill="white"/>
<path d="M72.7467 26.2534C72.8397 26.3 72.9326 26.3466 73.0284 26.3946C73.0749 26.5343 73.1214 26.674 73.1692 26.818C72.8439 26.9112 72.5186 27.0043 72.1834 27.1003C72.2274 26.8357 72.2274 26.8357 72.3242 26.5357C72.4637 26.4426 72.6031 26.3494 72.7467 26.2534Z" fill="white"/>
<path d="M72.6059 31.8994C73.0242 31.9693 73.0242 31.9693 73.4509 32.0406C73.4044 32.2735 73.3579 32.5064 73.3101 32.7463C72.9615 32.6066 72.9615 32.6066 72.6059 32.464C72.6059 32.2777 72.6059 32.0914 72.6059 31.8994Z" fill="white"/>
<path d="M78.38 25.1245C78.5659 25.2177 78.7518 25.3108 78.9433 25.4068C78.8504 25.4068 78.7574 25.4068 78.6616 25.4068C78.6152 25.5931 78.5687 25.7794 78.5208 25.9714C78.1723 25.8317 78.1723 25.8317 77.8167 25.6891C77.8167 25.5959 77.8167 25.5028 77.8167 25.4068C78.0025 25.4068 78.1884 25.4068 78.38 25.4068C78.38 25.3137 78.38 25.2205 78.38 25.1245Z" fill="white"/>
<path d="M72.6059 30.9116C72.7918 30.9116 72.9777 30.9116 73.1692 30.9116C73.1692 31.0514 73.1692 31.1911 73.1692 31.3351C73.0763 31.3351 72.9833 31.3351 72.8876 31.3351C72.8411 31.4748 72.7946 31.6145 72.7467 31.7585C72.7003 31.7585 72.6538 31.7585 72.6059 31.7585C72.6059 31.479 72.6059 31.1996 72.6059 30.9116Z" fill="white"/>
<path d="M77.8167 29.6411C77.9096 29.7809 78.0026 29.9206 78.0983 30.0646C78.0054 30.2509 77.9124 30.4372 77.8167 30.6292C77.6772 30.5826 77.5378 30.536 77.3942 30.488C77.535 30.0646 77.535 30.0646 77.6758 29.9234C77.7223 29.8303 77.7688 29.7371 77.8167 29.6411Z" fill="white"/>
<path d="M80.2108 33.1699C80.5094 33.539 80.7926 33.9034 81.0558 34.2991C80.8699 34.2991 80.684 34.2991 80.4925 34.2991C80.244 33.8632 80.2108 33.7016 80.2108 33.1699Z" fill="white"/>
</svg>
