<svg width="28" height="28" viewBox="0 0 28 28" fill="none" xmlns="http://www.w3.org/2000/svg">
<path d="M19.25 8.75008V8.76175M4.66666 9.33342C4.66666 8.09574 5.15832 6.90875 6.03349 6.03358C6.90866 5.15841 8.09565 4.66675 9.33332 4.66675H18.6667C19.9043 4.66675 21.0913 5.15841 21.9665 6.03358C22.8417 6.90875 23.3333 8.09574 23.3333 9.33342V18.6667C23.3333 19.9044 22.8417 21.0914 21.9665 21.9666C21.0913 22.8417 19.9043 23.3334 18.6667 23.3334H9.33332C8.09565 23.3334 6.90866 22.8417 6.03349 21.9666C5.15832 21.0914 4.66666 19.9044 4.66666 18.6667V9.33342ZM10.5 14.0001C10.5 14.9283 10.8687 15.8186 11.5251 16.475C12.1815 17.1313 13.0717 17.5001 14 17.5001C14.9282 17.5001 15.8185 17.1313 16.4749 16.475C17.1312 15.8186 17.5 14.9283 17.5 14.0001C17.5 13.0718 17.1312 12.1816 16.4749 11.5252C15.8185 10.8688 14.9282 10.5001 14 10.5001C13.0717 10.5001 12.1815 10.8688 11.5251 11.5252C10.8687 12.1816 10.5 13.0718 10.5 14.0001Z" stroke="white" stroke-width="2" stroke-linecap="round" stroke-linejoin="round"/>
</svg>
