<svg width="28" height="28" viewBox="0 0 28 28" fill="none" xmlns="http://www.w3.org/2000/svg">
<path d="M9.33335 12.8334V18.6667M9.33335 9.33342V9.34508M14 18.6667V12.8334M18.6667 18.6667V15.1667C18.6667 14.5479 18.4209 13.9544 17.9833 13.5168C17.5457 13.0792 16.9522 12.8334 16.3334 12.8334C15.7145 12.8334 15.121 13.0792 14.6834 13.5168C14.2459 13.9544 14 14.5479 14 15.1667M4.66669 7.00008C4.66669 6.38124 4.91252 5.78775 5.3501 5.35017C5.78769 4.91258 6.38118 4.66675 7.00002 4.66675H21C21.6189 4.66675 22.2124 4.91258 22.6499 5.35017C23.0875 5.78775 23.3334 6.38124 23.3334 7.00008V21.0001C23.3334 21.6189 23.0875 22.2124 22.6499 22.65C22.2124 23.0876 21.6189 23.3334 21 23.3334H7.00002C6.38118 23.3334 5.78769 23.0876 5.3501 22.65C4.91252 22.2124 4.66669 21.6189 4.66669 21.0001V7.00008Z" stroke="white" stroke-width="2" stroke-linecap="round" stroke-linejoin="round"/>
</svg>
